<?xml version="1.0" encoding="UTF-8"?>
<!DOCTYPE svg PUBLIC "-//W3C//DTD SVG 1.1//EN" "http://www.w3.org/Graphics/SVG/1.1/DTD/svg11.dtd">
<!-- Creator: CorelDRAW -->
<svg xmlns="http://www.w3.org/2000/svg" xml:space="preserve" width="6.82666in" height="6.82666in" style="shape-rendering:geometricPrecision; text-rendering:geometricPrecision; image-rendering:optimizeQuality; fill-rule:evenodd; clip-rule:evenodd"
viewBox="0 0 6.82666 6.82666"
 xmlns:xlink="http://www.w3.org/1999/xlink">
 <defs>
  <style type="text/css">
   <![CDATA[
    .fil3 {fill:none}
    .fil0 {fill:#80451B;fill-rule:nonzero}
    .fil1 {fill:#9F5928;fill-rule:nonzero}
    .fil2 {fill:#D4E157;fill-rule:nonzero}
   ]]>
  </style>
 </defs>
 <g id="Layer_x0020_1">
  <metadata id="CorelCorpID_0Corel-Layer"/>
  <g id="_318267112">
   <path id="_318266872" class="fil0" d="M1.86233 1.67971l0 -0.298035 0 -0.106669 0.103614 0c0.00312992,0 0.0310906,-0.0493504 0.065311,-0.0986929 0.0654409,-0.0943465 0.130874,-0.188697 0.233673,-0.188697 0.105268,0 0.176516,0.092063 0.247756,0.184114 0.0399606,0.0516339 0.0799252,0.103276 0.0858504,0.103276 0.000338583,0 0.0294803,-0.0470551 0.0586181,-0.0941102 0.0598425,-0.0966378 0.119689,-0.19328 0.23265,-0.19328 0.0877559,0 0.142665,0.0987283 0.197567,0.197445 0.0250118,0.0449685 -0.0142913,0.0899449 0.017874,0.0899449 0.000755906,0 0.0349567,-0.0499764 0.0706654,-0.0999409 0.0669803,-0.0937165 0.133965,-0.187449 0.237425,-0.187449 0.103453,0 0.170437,0.0937283 0.237417,0.187441 0.0357087,0.0499685 0.0699173,0.0999488 0.0706693,0.0999488 0.0321575,0 -0.0071378,-0.0449724 0.017874,-0.0899449 0.0549016,-0.0987165 0.109811,-0.197445 0.197567,-0.197445 0.112961,0 0.172807,0.0966417 0.23265,0.19328 0.0291378,0.0470551 0.0582795,0.0941102 0.0586142,0.0941102 0.0059252,0 0.0458898,-0.0516417 0.0858543,-0.103276 0.0712402,-0.0920512 0.142488,-0.184114 0.247752,-0.184114 0.102799,0 0.168236,0.0943504 0.233677,0.188697 0.0342244,0.0493465 0.0621772,0.0986929 0.0653071,0.0986929l0.103614 0 0 0.106669 0 0.298035 -3.102 0z"/>
   <path id="_318266680" class="fil1" d="M5.00372 1.73042c-0.00782283,-0.0283031 -0.0263819,-0.0507559 -0.0500591,-0.0641772l0 -0.0141575 -3.10242 0 0 0.0304764c-0.0130906,0.0127244 -0.0230827,0.0289882 -0.0282992,0.0478583 -0.213622,0.77426 -0.331421,1.51275 -0.336921,2.20928 -0.00551575,0.697854 0.101559,1.35293 0.33763,1.95894 0.0135866,0.0432874 0.0540236,0.0746929 0.101791,0.0746929l2.97342 0c0.0434843,0.000956693 0.0849213,-0.024937 0.101693,-0.0677953l-0.0993307 -0.038874 0.0991654 0.038752c0.237913,-0.607909 0.345791,-1.26526 0.340256,-1.96572 -0.0055,-0.696528 -0.123299,-1.43502 -0.336921,-2.20928z"/>
   <path id="_318267256" class="fil2" d="M4.09001 3.41152c0.0690236,0 0.131531,0.0279921 0.176772,0.0732323 0.0452402,0.045248 0.0732323,0.107752 0.0732323,0.176776 0,0.0690236 -0.0279921,0.131528 -0.0732323,0.176776 -0.0452402,0.0452402 -0.107748,0.0732323 -0.176772,0.0732323 -0.0690236,0 -0.131528,-0.0279921 -0.176776,-0.0732323 -0.0452402,-0.045248 -0.0732323,-0.107752 -0.0732323,-0.176776 0,-0.0690236 0.0279921,-0.131531 0.0732323,-0.176772 0.045248,-0.045248 0.107752,-0.0732362 0.176776,-0.0732362zm-1.35335 0c0.0690236,0 0.131531,0.0279921 0.176772,0.0732323 0.0452402,0.045248 0.0732323,0.107752 0.0732323,0.176776 0,0.0690236 -0.0279921,0.131528 -0.0732323,0.176776 -0.0452402,0.0452402 -0.107748,0.0732323 -0.176772,0.0732323 -0.0690236,0 -0.131528,-0.0279921 -0.176776,-0.0732323 -0.0452402,-0.045248 -0.0732323,-0.107752 -0.0732323,-0.176776 0,-0.0690236 0.0279921,-0.131531 0.0732323,-0.176772 0.045248,-0.045248 0.107752,-0.0732362 0.176776,-0.0732362zm0.676673 -0.178205c0.0690236,0 0.131531,0.0279921 0.176772,0.0732323 0.0452402,0.045248 0.0732323,0.107752 0.0732323,0.176776 0,0.0690236 -0.0279921,0.131528 -0.0732323,0.176776 -0.0452402,0.0452402 -0.107748,0.0732323 -0.176772,0.0732323 -0.0690236,0 -0.131528,-0.0279921 -0.176776,-0.0732323 -0.0452402,-0.045248 -0.0732323,-0.107752 -0.0732323,-0.176776 0,-0.0690236 0.0279921,-0.131531 0.0732323,-0.176772 0.045248,-0.045248 0.107752,-0.0732362 0.176776,-0.0732362zm-3.93701e-006 0.588488c0.198854,0 0.381063,0.0485394 0.514878,0.127016 0.150705,0.088374 0.243921,0.216055 0.243921,0.362083 0,0.146028 -0.0932205,0.273709 -0.243921,0.362083 -0.133815,0.0784764 -0.316024,0.127016 -0.514878,0.127016 -0.198854,0 -0.381063,-0.0485394 -0.514878,-0.127016 -0.150701,-0.088374 -0.243921,-0.216055 -0.243921,-0.362083 0,-0.146028 0.0932165,-0.273709 0.243921,-0.362083 0.133815,-0.0784764 0.316024,-0.127016 0.514878,-0.127016z"/>
  </g>
 </g>
 <rect class="fil3" width="6.82666" height="6.82666"/>
</svg>
