<?xml version="1.0" encoding="UTF-8"?>
<!DOCTYPE svg PUBLIC "-//W3C//DTD SVG 1.1//EN" "http://www.w3.org/Graphics/SVG/1.1/DTD/svg11.dtd">
<!-- Creator: CorelDRAW -->
<svg xmlns="http://www.w3.org/2000/svg" xml:space="preserve" width="6.82666in" height="6.82666in" style="shape-rendering:geometricPrecision; text-rendering:geometricPrecision; image-rendering:optimizeQuality; fill-rule:evenodd; clip-rule:evenodd"
viewBox="0 0 6.82666 6.82666"
 xmlns:xlink="http://www.w3.org/1999/xlink">
 <defs>
  <style type="text/css">
   <![CDATA[
    .fil3 {fill:none}
    .fil2 {fill:#546E7A}
    .fil1 {fill:#90A4AE}
    .fil0 {fill:#995817;fill-rule:nonzero}
   ]]>
  </style>
 </defs>
 <g id="Layer_x0020_1">
  <metadata id="CorelCorpID_0Corel-Layer"/>
  <path class="fil0" d="M2.30083 3.48102c-0.20261,0.00308661 -0.32202,-0.0799882 -0.376594,-0.206701 -0.0290197,-0.0673819 -0.0370079,-0.145323 -0.0274685,-0.227256 0.00883071,-0.0758228 0.0328386,-0.155965 0.0689449,-0.23426 0.107417,-0.232917 0.328118,-0.456315 0.579315,-0.504657 0.0200315,-0.167646 0.0964488,-0.318902 0.20974,-0.433921 0.132661,-0.134681 0.316197,-0.219531 0.519161,-0.222626 0.02,-0.00030315 -0.00158268,-0.00046063 0.0110551,-0.00046063 0.198551,0 0.378272,0.0792126 0.50926,0.208201 0.112984,0.11126 0.189429,0.259685 0.210118,0.426303 0.108346,0.0177795 0.205398,0.0688898 0.280311,0.142661 0.0655118,0.0645157 0.113921,0.146449 0.137957,0.238618 0.0289843,-0.0067874 0.0591378,-0.0105866 0.0901299,-0.0110551 0.0038622,-5.90551e-005 0.00561811,-0.000114173 0.00615354,-0.000161417l0 -6.29921e-005c-0.00142913,-0.000129921 -0.0102756,-0.000200787 0,-0.000200787 0.113374,0 0.216106,0.0453346 0.291071,0.119154 0.0747795,0.0736417 0.121575,0.175799 0.123307,0.289634 5.90551e-005,0.00390157 0.000114173,0.00564567 0.000161417,0.00615354l6.29921e-005 0c0.000129921,-0.00135039 0.000200787,-0.0102638 0.000200787,0 0,0.115366 -0.0468504,0.220618 -0.122583,0.297512 -0.0755591,0.0767165 -0.180228,0.125055 -0.296075,0.126819 -0.0693228,0.00105512 -0.340094,-0.00174803 -0.674882,-0.00520472 -0.54074,-0.00559055 -1.24899,-0.0129134 -1.53935,-0.00848819z"/>
  <path class="fil1" d="M1.52757 3.16087l3.77152 0c0.103142,0 0.186705,0.040252 0.251402,0.104949 0.0669764,0.0669764 0.111209,0.160409 0.133803,0.259839l0.281449 1.23841c0.00514173,0.022626 0.00758268,0.0441417 0.00758268,0.0644921 0,0.0859961 -0.0381535,0.163413 -0.0977795,0.223472 -0.0544921,0.0548898 -0.128323,0.0953622 -0.206295,0.113083 -0.0299134,0.00679528 -0.0597717,0.0104134 -0.0887126,0.0104134l-4.33442 0c-0.0289409,0 -0.0587953,-0.00361811 -0.0887126,-0.0104134 -0.0779764,-0.0177165 -0.151799,-0.058189 -0.206295,-0.113079 -0.059626,-0.0600551 -0.0977795,-0.137476 -0.0977795,-0.223476 0,-0.0203504 0.00244094,-0.0418661 0.00758268,-0.0644921l0.281449 -1.23841c0.0225984,-0.099437 0.0668268,-0.192866 0.133799,-0.259843 0.0646969,-0.0646969 0.148264,-0.104945 0.251406,-0.104945z"/>
  <path class="fil2" d="M1.52757 3.16087l3.77152 0c0.103142,0 0.186705,0.040252 0.251402,0.104949 0.0669764,0.0669764 0.111209,0.160409 0.133803,0.259839l0.00918898 0.0404409 -4.56031 0 0.00918898 -0.0404409c0.0225984,-0.099437 0.0668268,-0.192866 0.133799,-0.259843 0.0646969,-0.0646969 0.148264,-0.104945 0.251406,-0.104945z"/>
  <path class="fil2" d="M2.55285 3.99444c0.0749213,0 0.143929,0.0225 0.198154,0.0600197 0.0326811,0.0226102 0.0599016,0.0507638 0.0797047,0.0827992l1.16525 0c0.0198031,-0.0320354 0.0470236,-0.060189 0.0797047,-0.0827992 0.0542244,-0.0375197 0.123232,-0.0600197 0.198154,-0.0600197 0.0867126,0 0.165236,0.0297992 0.222067,0.0779685 0.0568386,0.0481772 0.0919961,0.11472 0.0919961,0.188213 0,0.0340236 -0.00798425,0.0671575 -0.0225079,0.0981063 -0.00393701,0.00839764 -0.00834252,0.016563 -0.013185,0.0244803 0.00483858,0.00791732 0.00924803,0.0160827 0.013185,0.0244803 0.0145236,0.0309488 0.0225079,0.0640827 0.0225079,0.0981063 0,0.0734921 -0.0351614,0.140043 -0.0919961,0.188213 -0.0568307,0.0481693 -0.135354,0.0779685 -0.222067,0.0779685 -0.0849331,0 -0.16215,-0.0288189 -0.218843,-0.0756024 -0.0330433,-0.0272677 -0.0590118,-0.0607087 -0.0753622,-0.0981614l-1.13256 0c-0.0163504,0.0374528 -0.0423189,0.0708937 -0.0753622,0.0981614 -0.0566929,0.0467835 -0.133909,0.0756024 -0.218843,0.0756024 -0.0867126,0 -0.165236,-0.0297992 -0.222067,-0.0779685 -0.0568346,-0.0481693 -0.0919961,-0.11472 -0.0919961,-0.188213 0,-0.0340236 0.00798425,-0.0671575 0.0225079,-0.0981063 0.00393701,-0.00839764 0.00834252,-0.016563 0.013185,-0.0244803 -0.00483858,-0.00791732 -0.00924803,-0.0160827 -0.013185,-0.0244803 -0.0145236,-0.0309488 -0.0225079,-0.0640827 -0.0225079,-0.0981063 0,-0.0734921 0.0351575,-0.140035 0.0919961,-0.188213 0.0568307,-0.0481693 0.135354,-0.0779685 0.222067,-0.0779685z"/>
 </g>
 <rect class="fil3" width="6.82666" height="6.82666"/>
</svg>
