<?xml version="1.0" encoding="UTF-8"?>
<!DOCTYPE svg PUBLIC "-//W3C//DTD SVG 1.1//EN" "http://www.w3.org/Graphics/SVG/1.1/DTD/svg11.dtd">
<!-- Creator: CorelDRAW -->
<svg xmlns="http://www.w3.org/2000/svg" xml:space="preserve" width="6.82666in" height="6.82666in" style="shape-rendering:geometricPrecision; text-rendering:geometricPrecision; image-rendering:optimizeQuality; fill-rule:evenodd; clip-rule:evenodd"
viewBox="0 0 6.82666 6.82666"
 xmlns:xlink="http://www.w3.org/1999/xlink">
 <defs>
  <style type="text/css">
   <![CDATA[
    .fil4 {fill:none}
    .fil3 {fill:#6D4C41}
    .fil2 {fill:#3E2723;fill-rule:nonzero}
    .fil0 {fill:#8D6E63;fill-rule:nonzero}
    .fil1 {fill:#BCAAA4;fill-rule:nonzero}
   ]]>
  </style>
 </defs>
 <g id="Layer_x0020_1">
  <metadata id="CorelCorpID_0Corel-Layer"/>
  <g id="_318275080">
   <path id="_318275152" class="fil0" d="M1.86233 1.61255l0 -0.298035 0 -0.106669 0.103614 0c0.00312992,0 0.0310906,-0.0493504 0.065311,-0.0986929 0.0654409,-0.0943465 0.130874,-0.188697 0.233673,-0.188697 0.105268,0 0.176516,0.092063 0.247756,0.184114 0.0399606,0.0516339 0.0799252,0.103276 0.0858504,0.103276 0.000338583,0 0.0294803,-0.0470551 0.0586181,-0.0941102 0.0598425,-0.0966378 0.119689,-0.19328 0.23265,-0.19328 0.0877559,0 0.142665,0.0987283 0.197567,0.197445 0.0250118,0.0449685 -0.0142913,0.0899449 0.017874,0.0899449 0.000755906,0 0.0349567,-0.0499764 0.0706654,-0.0999409 0.0669803,-0.0937165 0.133965,-0.187449 0.237425,-0.187449 0.103453,0 0.170437,0.0937283 0.237417,0.187441 0.0357087,0.0499685 0.0699173,0.0999488 0.0706693,0.0999488 0.0321575,0 -0.0071378,-0.0449724 0.017874,-0.0899449 0.0549016,-0.0987165 0.109811,-0.197445 0.197567,-0.197445 0.112961,0 0.172807,0.0966417 0.23265,0.19328 0.0291378,0.0470551 0.0582795,0.0941102 0.0586142,0.0941102 0.0059252,0 0.0458898,-0.0516417 0.0858543,-0.103276 0.0712402,-0.0920512 0.142488,-0.184114 0.247752,-0.184114 0.102799,0 0.168236,0.0943504 0.233677,0.188697 0.0342244,0.0493465 0.0621772,0.0986929 0.0653071,0.0986929l0.103614 0 0 0.106669 0 0.298035 -3.102 0z"/>
   <path id="_318275368" class="fil1" d="M5.00372 1.66326c-0.00782283,-0.0283031 -0.0263819,-0.0507559 -0.0500591,-0.0641772l0 -0.0141575 -3.10242 0 0 0.0304764c-0.0130906,0.0127244 -0.0230827,0.0289882 -0.0282992,0.0478583 -0.213622,0.77426 -0.331421,1.51275 -0.336921,2.20928 -0.00551575,0.697854 0.101559,1.35293 0.33763,1.95894 0.0135866,0.0432874 0.0540236,0.0746929 0.101791,0.0746929l2.97342 0c0.0434843,0.000956693 0.0849213,-0.024937 0.101693,-0.0677953l-0.0993307 -0.038874 0.0991654 0.038752c0.237913,-0.607909 0.345791,-1.26526 0.340256,-1.96572 -0.0055,-0.696528 -0.123299,-1.43502 -0.336921,-2.20928z"/>
  </g>
  <path class="fil2" d="M2.29638 4.62142c0.0660945,-0.393118 0.205236,-0.778417 0.407858,-1.12562 0.196713,-0.337071 0.453862,-0.639126 0.762772,-0.87861l0.0737756 -0.0571929 0.0585079 0.0732126c0.0800433,0.100157 0.122634,0.219051 0.133906,0.353579 0.00930315,0.110992 -0.00294488,0.232929 -0.0330354,0.363925 0.203811,0.175972 0.368268,0.288441 0.501492,0.350524 0.124961,0.0582362 0.214807,0.0690315 0.279335,0.0456496l0.0905512 -0.032815 0.0316732 0.0913189c0.0278071,0.0801732 0.0406457,0.151776 0.0409055,0.215657 0.000637795,0.156398 -0.0695709,0.263673 -0.180461,0.335543 -0.098752,0.0640039 -0.228862,0.0959685 -0.366071,0.108382 -0.164031,0.0148504 -0.339732,0.00220472 -0.479894,-0.0158898l-0.0104921 0.519441 -0.00173622 0.085878 -0.0854606 0.00728346c-0.204213,0.0173898 -0.405126,-0.0098189 -0.60348,-0.0715197 -0.194417,-0.0604764 -0.38622,-0.154496 -0.576177,-0.272232l-0.0545157 -0.0337913 0.0105472 -0.0627205z"/>
  <ellipse class="fil3" cx="3.70665" cy="3.74805" rx="0.0990091" ry="0.100608"/>
 </g>
 <rect class="fil4" width="6.82666" height="6.82666"/>
</svg>
