<?xml version="1.0" encoding="UTF-8"?>
<!DOCTYPE svg PUBLIC "-//W3C//DTD SVG 1.1//EN" "http://www.w3.org/Graphics/SVG/1.1/DTD/svg11.dtd">
<!-- Creator: CorelDRAW -->
<svg xmlns="http://www.w3.org/2000/svg" xml:space="preserve" width="6.82666in" height="6.82666in" style="shape-rendering:geometricPrecision; text-rendering:geometricPrecision; image-rendering:optimizeQuality; fill-rule:evenodd; clip-rule:evenodd"
viewBox="0 0 6.82666 6.82666"
 xmlns:xlink="http://www.w3.org/1999/xlink">
 <defs>
  <style type="text/css">
   <![CDATA[
    .fil5 {fill:none}
    .fil4 {fill:#757575;fill-rule:nonzero}
    .fil2 {fill:#B71C1C;fill-rule:nonzero}
    .fil3 {fill:#BDBDBD;fill-rule:nonzero}
    .fil1 {fill:#C62828;fill-rule:nonzero}
    .fil0 {fill:#EF5350;fill-rule:nonzero}
   ]]>
  </style>
 </defs>
 <g id="Layer_x0020_1">
  <metadata id="CorelCorpID_0Corel-Layer"/>
  <g id="_318246640">
   <path id="_318246664" class="fil0" d="M5.14117 3.88619l0.410606 1.31735 0.00590945 0.0374055c0,0.230126 -0.267504,0.423224 -0.699996,0.549366 -0.387705,0.113075 -0.920024,0.18302 -1.50505,0.18302 -0.585024,0 -1.11734,-0.0699449 -1.50505,-0.18302 -0.432488,-0.126142 -0.699992,-0.31924 -0.699992,-0.549366l0.00590945 -0.0374055 0.410602 -1.31735c0.0137165,-0.204173 0.230098,-0.376114 0.573071,-0.490433 0.313752,-0.104591 0.743701,-0.16928 1.21546,-0.16928 0.471756,0 0.901709,0.064689 1.21546,0.16928 0.342972,0.114319 0.559354,0.28626 0.573067,0.490433z"/>
   <path id="_318247216" class="fil1" d="M4.48934 3.63398c-0.288201,-0.0960709 -0.689882,-0.155492 -1.1367,-0.155492 -0.446819,0 -0.8485,0.0594213 -1.1367,0.155492 -0.247457,0.0824843 -0.40052,0.17998 -0.40052,0.272913 0,0.092937 0.153063,0.190429 0.40052,0.272917 0.288201,0.0960669 0.689882,0.155488 1.1367,0.155488 0.446823,0 0.848504,-0.0594213 1.1367,-0.155488 0.247461,-0.0824882 0.40052,-0.17998 0.40052,-0.272917 0,-0.0929331 -0.153059,-0.190429 -0.40052,-0.272913z"/>
   <path id="_318246928" class="fil2" d="M2.64742 4.73851c-0.0592047,0 -0.117051,0.0211299 -0.160382,0.0618504 -0.0390433,0.036689 -0.0624764,0.0859449 -0.0624764,0.139969 0,0.0247559 0.0054685,0.0489685 0.0150906,0.0717165 0.00201181,0.00475984 0.0042126,0.00943307 0.00659449,0.0140197l0.0301417 0.0580591 -0.0301417 0.0580669c-0.00238189,0.00458268 -0.00458268,0.00925984 -0.00659449,0.0140197 -0.00962205,0.022752 -0.0150906,0.0469606 -0.0150906,0.0717205 0,0.0540157 0.0234331,0.10328 0.0624764,0.139965 0.0433307,0.0407205 0.101177,0.0618504 0.160382,0.0618504 0.0582087,0 0.114913,-0.0206654 0.158004,-0.0600866 0.0208071,-0.0190394 0.0377244,-0.0420945 0.0489803,-0.0679843l0.0329409 -0.0757598 0.930606 0 0.032874 0.0759528c0.0112126,0.0259055 0.0280866,0.0489764 0.0488937,0.0680157 0.043185,0.0395039 0.0998465,0.0598622 0.158138,0.0598622 0.0570197,0 0.110083,-0.0257913 0.151114,-0.0643465 0.0337008,-0.0316654 0.0717402,-0.0894449 0.0717402,-0.137469 0,-0.0232205 -0.000925197,-0.0623346 -0.0125039,-0.0836339l-0.0327008 -0.0601654 0.0327008 -0.0601654c0.0115787,-0.021311 0.0125039,-0.0604094 0.0125039,-0.0836378 0,-0.0471457 -0.0397205,-0.104906 -0.0726772,-0.135878 -0.0401614,-0.0377402 -0.0940787,-0.0659409 -0.150177,-0.0659409 -0.0522677,0 -0.102583,0.0143819 -0.144323,0.0464055 -0.0207795,0.015937 -0.0382244,0.0356181 -0.0513543,0.0582913l-0.0364055 0.0628346 -0.946098 0 -0.0366693 -0.061374c-0.0134764,-0.0225551 -0.031374,-0.0422677 -0.0522126,-0.058248 -0.0411378,-0.0315591 -0.091622,-0.0479094 -0.143374,-0.0479094z"/>
  </g>
  <g id="_318245920">
   <path id="_318246976" class="fil3" d="M5.35585 1.36525l0.318622 1.02223 0.00458268 0.0290276c0,0.178571 -0.207579,0.328413 -0.543177,0.426295 -0.30085,0.0877441 -0.713917,0.14202 -1.16788,0.14202 -0.453965,0 -0.867031,-0.0542756 -1.16788,-0.14202 -0.335602,-0.0978819 -0.543181,-0.247724 -0.543181,-0.426295l0.00459055 -0.0290276 0.318618 -1.02223c0.0106417,-0.158433 0.178547,-0.291854 0.444685,-0.380563 0.243465,-0.0811575 0.577098,-0.131358 0.943169,-0.131358 0.366071,0 0.699701,0.0502008 0.943165,0.131358 0.266142,0.0887087 0.434047,0.22213 0.444689,0.380563z"/>
   <path id="_318246352" class="fil4" d="M4.85006 1.16954c-0.223638,-0.0745472 -0.535335,-0.120657 -0.882055,-0.120657 -0.346724,0 -0.658417,0.0461102 -0.882055,0.120657 -0.19202,0.0640079 -0.310795,0.139661 -0.310795,0.211776 0,0.0721181 0.118776,0.147772 0.310795,0.211776 0.223638,0.0745472 0.535331,0.120657 0.882055,0.120657 0.34672,0 0.658417,-0.0461102 0.882055,-0.120657 0.192024,-0.0640039 0.310791,-0.139657 0.310791,-0.211776 0,-0.0721142 -0.118768,-0.147768 -0.310791,-0.211776z"/>
   <path id="_318245944" class="fil4" d="M3.42077 2.02663c-0.0459449,0 -0.0908307,0.0163976 -0.124453,0.0479921 -0.0302992,0.0284724 -0.0484803,0.0666929 -0.0484803,0.10861 0,0.0192126 0.00424016,0.038 0.0117087,0.0556535 0.00156299,0.00369291 0.00326772,0.0073189 0.00511811,0.010878l0.0233898 0.0450551 -0.0233898 0.0450551c-0.00185039,0.00355906 -0.00355512,0.00718898 -0.00511811,0.0108819 -0.0074685,0.0176535 -0.0117087,0.0364409 -0.0117087,0.0556496 0,0.0419173 0.0181811,0.0801457 0.0484803,0.10861 0.033622,0.0315984 0.0785079,0.0479961 0.124453,0.0479961 0.0451654,0 0.0891693,-0.0160354 0.122606,-0.046626 0.0161457,-0.0147756 0.0292717,-0.0326654 0.0380079,-0.0527559l0.025563 -0.0587874 0.722126 0 0.0255118 0.058937c0.00870079,0.0201024 0.0217913,0.0380039 0.0379409,0.0527795 0.0335079,0.0306535 0.0774764,0.0464528 0.122709,0.0464528 0.044248,0 0.0854213,-0.0200118 0.11726,-0.0499291 0.0261535,-0.0245748 0.0556732,-0.0694094 0.0556732,-0.106677 0,-0.0180157 -0.000720472,-0.0483701 -0.00970472,-0.0648937l-0.025374 -0.046689 0.0253701 -0.046685c0.00898819,-0.0165394 0.00970866,-0.046878 0.00970866,-0.0649055 0,-0.0365787 -0.0308228,-0.0814016 -0.0564016,-0.105437 -0.0311614,-0.0292835 -0.073,-0.0511654 -0.116531,-0.0511654 -0.0405551,0 -0.0796024,0.0111575 -0.111992,0.0360079 -0.016122,0.0123661 -0.0296575,0.0276378 -0.0398465,0.0452323l-0.028252 0.0487598 -0.73415 0 -0.0284528 -0.047626c-0.0104606,-0.0175039 -0.0243504,-0.0327992 -0.0405157,-0.0452008 -0.0319252,-0.0244882 -0.0710984,-0.0371732 -0.111256,-0.0371732z"/>
  </g>
 </g>
 <rect class="fil5" width="6.82666" height="6.82666"/>
</svg>
