<?xml version="1.0" encoding="UTF-8"?>
<!DOCTYPE svg PUBLIC "-//W3C//DTD SVG 1.1//EN" "http://www.w3.org/Graphics/SVG/1.1/DTD/svg11.dtd">
<!-- Creator: CorelDRAW -->
<svg xmlns="http://www.w3.org/2000/svg" xml:space="preserve" width="6.82666in" height="6.82666in" style="shape-rendering:geometricPrecision; text-rendering:geometricPrecision; image-rendering:optimizeQuality; fill-rule:evenodd; clip-rule:evenodd"
viewBox="0 0 6.82666 6.82666"
 xmlns:xlink="http://www.w3.org/1999/xlink">
 <defs>
  <style type="text/css">
   <![CDATA[
    .fil2 {fill:none}
    .fil0 {fill:#B9A17B;fill-rule:nonzero}
    .fil1 {fill:#C2AA82;fill-rule:nonzero}
   ]]>
  </style>
 </defs>
 <g id="Layer_x0020_1">
  <metadata id="CorelCorpID_0Corel-Layer"/>
  <path class="fil0" d="M3.18891 5.33984c-0.031689,-0.126697 -0.111551,-0.241209 -0.232047,-0.31348l-0.0995866 -0.0597402 0.0595866 -0.0993425 1.54526 -2.57628 0.0597323 -0.0995866 0.0993504 0.0595866c0.120654,0.0723701 0.25937,0.0889528 0.386083,0.057252 0.126697,-0.031689 0.241209,-0.111551 0.313484,-0.232047 0.0723661,-0.120657 0.0889488,-0.259378 0.057252,-0.386083 -0.031689,-0.126693 -0.111551,-0.241209 -0.232047,-0.313484 -0.058126,-0.0348622 -0.120705,-0.0567598 -0.184287,-0.0665315 -0.0668386,-0.0102638 -0.133811,-0.00733465 -0.197122,0.00783858l-0.11039 0.0264606 -0.0286929 -0.110094c-0.016563,-0.063563 -0.0452559,-0.123882 -0.0851063,-0.177106 -0.0383819,-0.0512598 -0.0872756,-0.0961496 -0.145819,-0.131268 -0.120657,-0.0723701 -0.259378,-0.0889488 -0.386087,-0.0572559 -0.126693,0.0316929 -0.241205,0.111555 -0.31348,0.232051 -0.0723701,0.120657 -0.0889488,0.259378 -0.0572559,0.386087 0.031689,0.126693 0.111551,0.241201 0.232047,0.313476l0.0995866 0.0597362 -0.0595866 0.0993425 -1.54526 2.57628 -0.0597283 0.0995866 -0.0993504 -0.0595866c-0.120661,-0.072374 -0.259378,-0.0889488 -0.386091,-0.057252 -0.126693,0.0316929 -0.241205,0.111551 -0.313472,0.232047 -0.0723701,0.120657 -0.0889488,0.259378 -0.0572559,0.386087 0.031689,0.126697 0.111551,0.241205 0.232047,0.31348 0.058122,0.0348622 0.120705,0.0567638 0.184283,0.0665315 0.0668386,0.0102638 0.133815,0.00733465 0.197126,-0.00783858l0.110386 -0.0264567 0.0286929 0.110091c0.0165669,0.0635669 0.0452638,0.123882 0.0851102,0.177106 0.0383819,0.0512598 0.0872717,0.0961535 0.145815,0.131268 0.120661,0.072374 0.259378,0.0889567 0.386091,0.0572559 0.126697,-0.031689 0.241209,-0.111555 0.31348,-0.232047 0.0723701,-0.120657 0.0889528,-0.259374 0.057252,-0.386087z"/>
  <path class="fil1" d="M4.4074 2.38226l0.0547323 -0.091252 0.0597323 -0.0995866 0.0993504 0.0595866c0.0996102,0.059748 0.211528,0.0814646 0.318843,0.0693858 0.0470079,-0.0371181 0.088189,-0.0831811 0.12078,-0.137516 0.0723661,-0.120657 0.0889488,-0.259378 0.057252,-0.386083 -0.031689,-0.126693 -0.111551,-0.241209 -0.232047,-0.313484 -0.058126,-0.0348622 -0.120705,-0.0567598 -0.184287,-0.0665315 -0.0668386,-0.0102638 -0.133811,-0.00733465 -0.197122,0.00783858l-0.11039 0.0264606 -0.0286929 -0.110094c-0.016563,-0.063563 -0.0452559,-0.123882 -0.0851063,-0.177106 -0.0383819,-0.0512598 -0.0872756,-0.0961496 -0.145819,-0.131268 -0.0996102,-0.059748 -0.211535,-0.0814606 -0.318846,-0.0693858 -0.0470079,0.0371181 -0.088185,0.083185 -0.120776,0.137516 -0.0723701,0.120657 -0.0889488,0.259378 -0.0572559,0.386087 0.031689,0.126693 0.111551,0.241201 0.232047,0.313476l0.0995866 0.0597362 -0.0595866 0.0993425 -1.54526 2.57628 -0.0597283 0.0995866 -0.0993504 -0.0595866c-0.0151142,-0.00906693 -0.0305118,-0.0172559 -0.0461339,-0.0245866l-0.0547323 0.091252 -0.0597283 0.0995866 -0.0993504 -0.0595866c-0.0996142,-0.059748 -0.211531,-0.0814646 -0.318843,-0.0693898 -0.0470079,0.0371181 -0.088189,0.083185 -0.120776,0.13752 -0.0723701,0.120657 -0.0889488,0.259378 -0.0572559,0.386087 0.031689,0.126697 0.111551,0.241205 0.232047,0.31348 0.058122,0.0348622 0.120705,0.0567638 0.184283,0.0665315 0.0668386,0.0102638 0.133815,0.00733465 0.197126,-0.00783858l0.110386 -0.0264567 0.0286929 0.110091c0.0165669,0.0635669 0.0452638,0.123882 0.0851102,0.177106 0.0383819,0.0512598 0.0872717,0.0961535 0.145815,0.131268 0.0996142,0.059752 0.211535,0.0814646 0.318846,0.0693898 0.0470118,-0.0371181 0.0881929,-0.083185 0.12078,-0.137516 0.0723701,-0.120657 0.0889528,-0.259374 0.057252,-0.386087 -0.031689,-0.126697 -0.111551,-0.241209 -0.232047,-0.31348l-0.0995866 -0.0597402 0.0595866 -0.0993425 1.54526 -2.57628 0.0597323 -0.0995866 0.0993504 0.0595866c0.0151142,0.00906693 0.0305118,0.0172598 0.0461299,0.0245866z"/>
 </g>
 <rect class="fil2" width="6.82666" height="6.82666"/>
</svg>
