<?xml version="1.0" encoding="UTF-8"?>
<!DOCTYPE svg PUBLIC "-//W3C//DTD SVG 1.1//EN" "http://www.w3.org/Graphics/SVG/1.1/DTD/svg11.dtd">
<!-- Creator: CorelDRAW -->
<svg xmlns="http://www.w3.org/2000/svg" xml:space="preserve" width="6.82666in" height="6.82666in" style="shape-rendering:geometricPrecision; text-rendering:geometricPrecision; image-rendering:optimizeQuality; fill-rule:evenodd; clip-rule:evenodd"
viewBox="0 0 6.82666 6.82666"
 xmlns:xlink="http://www.w3.org/1999/xlink">
 <defs>
  <style type="text/css">
   <![CDATA[
    .fil4 {fill:none}
    .fil2 {fill:#33691E}
    .fil3 {fill:#7CB342}
    .fil0 {fill:#6D4C41;fill-rule:nonzero}
    .fil1 {fill:#8A6B60;fill-rule:nonzero}
   ]]>
  </style>
 </defs>
 <g id="Layer_x0020_1">
  <metadata id="CorelCorpID_0Corel-Layer"/>
  <path class="fil0" d="M2.20888 3.68952c-0.214591,0.00326772 -0.34085,-0.10622 -0.398339,-0.239701 -0.0306929,-0.0712677 -0.039122,-0.153898 -0.0289882,-0.240909 0.00943307,-0.0810197 0.035126,-0.166736 0.0737756,-0.250535 0.116173,-0.251909 0.355642,-0.493398 0.627165,-0.542035 0.0200433,-0.182138 0.102303,-0.346575 0.225063,-0.471201 0.141831,-0.143992 0.338039,-0.234713 0.554988,-0.23802 0.0200827,-0.000295276 -0.00107087,-0.000456693 0.0118504,-0.000456693 0.212228,0 0.404299,0.0846496 0.544264,0.22248 0.122445,0.120579 0.204752,0.281992 0.225469,0.463102 0.118201,0.0177598 0.224106,0.0727244 0.305449,0.152831 0.0719252,0.0708228 0.124457,0.161382 0.149098,0.263272 0.0334764,-0.00862598 0.0685,-0.0134724 0.104594,-0.0140512l0 -7.87402e-006c0.0177559,-0.000275591 -0.00620866,-0.000417323 0.00691339,-0.000417323 0.120024,0 0.228752,0.0479724 0.308075,0.126087 0.079063,0.0778543 0.128571,0.185823 0.130496,0.306154l7.87402e-006 0c0.000275591,0.0176654 0.000417323,-0.00615748 0.000417323,0.00690551 0,0.122169 -0.0496024,0.233626 -0.129795,0.315039 -0.0800236,0.0812441 -0.19085,0.132433 -0.313484,0.134303 -0.796154,0.012126 -1.59891,-0.00499606 -2.39702,0.00716142z"/>
  <path class="fil1" d="M2.20888 3.68952c-0.214587,0.00327165 -0.340846,-0.10622 -0.398331,-0.239705 -0.0306969,-0.0712598 -0.039122,-0.153898 -0.0289921,-0.240902 0.00942913,-0.0810276 0.035126,-0.16674 0.0737717,-0.250539 0.116177,-0.251909 0.355646,-0.493398 0.627165,-0.542035 0.0200472,-0.182134 0.102307,-0.346579 0.225067,-0.471197 0.0801772,-0.0814055 0.177736,-0.145772 0.286594,-0.186957 0.167988,0.0238386 0.318496,0.101248 0.433697,0.214693 0.122445,0.120583 0.204748,0.281992 0.225465,0.463102 0.118205,0.0177598 0.22411,0.0727244 0.305453,0.152831 0.0719213,0.0708228 0.124457,0.161378 0.149098,0.263272 0.0334764,-0.00862205 0.0685,-0.0134724 0.104594,-0.0140512l0 -7.87402e-006c0.0177559,-0.000271654 -0.00620472,-0.000413386 0.00690945,-0.000413386 0.120024,0 0.228752,0.0479685 0.308079,0.126083 0.0790591,0.0778504 0.128571,0.185823 0.130496,0.306154l7.87402e-006 0c0.000275591,0.0176693 0.00042126,-0.00615748 0.00042126,0.00690551 0,0.122169 -0.0496063,0.233626 -0.129799,0.315039 -0.037878,0.0384567 -0.0826614,0.0701732 -0.132327,0.0931181 -0.727291,0.00679134 -1.45926,-0.00648031 -2.18737,0.00461024z"/>
  <path class="fil2" d="M1.52757 3.54853l3.77152 0c0.103142,0 0.186705,0.0385472 0.251402,0.100508 0.0669764,0.0641457 0.111209,0.153626 0.133803,0.248846l0.281449 1.18602c0.00514173,0.0216693 0.00758268,0.0422756 0.00758268,0.0617638 0,0.0823583 -0.0381535,0.1565 -0.0977795,0.21402 -0.0544921,0.0525669 -0.128323,0.0913268 -0.206295,0.108299 -0.0299134,0.00650787 -0.0597717,0.00997244 -0.0887126,0.00997244l-4.33442 0c-0.0289409,0 -0.0587953,-0.00346457 -0.0887126,-0.00997244 -0.0779764,-0.0169685 -0.151799,-0.0557283 -0.206295,-0.108295 -0.059626,-0.0575157 -0.0977795,-0.131661 -0.0977795,-0.214024 0,-0.0194882 0.00244094,-0.0400945 0.00758268,-0.0617638l0.281449 -1.18602c0.0225984,-0.0952283 0.0668268,-0.184705 0.133799,-0.24885 0.0646969,-0.0619567 0.148264,-0.100504 0.251406,-0.100504z"/>
  <path class="fil3" d="M3.41333 4.37233c0.159709,0 0.306043,0.0389843 0.41352,0.102012 0.121031,0.0709764 0.195902,0.17352 0.195902,0.290803 0,0.117283 -0.0748701,0.219827 -0.195902,0.290803 -0.107476,0.0630236 -0.253811,0.102012 -0.41352,0.102012 -0.159709,0 -0.306047,-0.0389882 -0.41352,-0.102012 -0.121031,-0.0709764 -0.195902,-0.17352 -0.195902,-0.290803 0,-0.117283 0.0748661,-0.219827 0.195902,-0.290803 0.107472,-0.0630276 0.253811,-0.102012 0.41352,-0.102012zm-0.531201 -0.373815c0.0580118,0 0.110547,0.0235315 0.148575,0.0615512 0.0380197,0.0380315 0.0615472,0.090563 0.0615472,0.148579 0,0.0580118 -0.0235276,0.110547 -0.0615472,0.148575 -0.0380276,0.0380276 -0.090563,0.0615472 -0.148575,0.0615472 -0.0580157,0 -0.110543,-0.0235197 -0.148575,-0.0615512 -0.0380276,-0.0380197 -0.0615512,-0.0905591 -0.0615512,-0.148571 0,-0.0580157 0.0235236,-0.110547 0.0615512,-0.148579 0.0380315,-0.0380197 0.0905591,-0.0615512 0.148575,-0.0615512zm0.550232 -0.129984c0.0580157,0 0.110551,0.0235276 0.148575,0.0615512 0.0380236,0.0380276 0.0615472,0.090563 0.0615472,0.148575 0,0.0580157 -0.0235236,0.110551 -0.0615472,0.148571 -0.0380236,0.0380276 -0.0905591,0.0615551 -0.148575,0.0615551 -0.0580118,0 -0.110543,-0.0235276 -0.148575,-0.0615551 -0.0380276,-0.0380197 -0.0615512,-0.0905551 -0.0615512,-0.148571 0,-0.0580118 0.0235236,-0.110547 0.0615512,-0.148575 0.0380315,-0.0380236 0.090563,-0.0615512 0.148575,-0.0615512zm0.512165 0.152972c0.0580197,0 0.110547,0.0235276 0.148575,0.0615591 0.0380276,0.0380197 0.0615472,0.0905551 0.0615472,0.148571 0,0.0580118 -0.0235197,0.110551 -0.0615472,0.148575 -0.0380276,0.0380315 -0.0905551,0.0615512 -0.148575,0.0615512 -0.0580118,0 -0.110547,-0.0235197 -0.148571,-0.0615512 -0.0380276,-0.0380236 -0.0615551,-0.090563 -0.0615551,-0.148575 0,-0.0580157 0.0235276,-0.110547 0.0615551,-0.148575 0.0380236,-0.0380276 0.0905591,-0.0615551 0.148571,-0.0615551z"/>
 </g>
 <rect class="fil4" width="6.82666" height="6.82666"/>
</svg>
