<?xml version="1.0" encoding="UTF-8"?>
<!DOCTYPE svg PUBLIC "-//W3C//DTD SVG 1.1//EN" "http://www.w3.org/Graphics/SVG/1.1/DTD/svg11.dtd">
<!-- Creator: CorelDRAW -->
<svg xmlns="http://www.w3.org/2000/svg" xml:space="preserve" width="6.82666in" height="6.82666in" style="shape-rendering:geometricPrecision; text-rendering:geometricPrecision; image-rendering:optimizeQuality; fill-rule:evenodd; clip-rule:evenodd"
viewBox="0 0 6.82666 6.82666"
 xmlns:xlink="http://www.w3.org/1999/xlink">
 <defs>
  <style type="text/css">
   <![CDATA[
    .fil4 {fill:none}
    .fil0 {fill:#2D77E7}
    .fil1 {fill:#34383D}
    .fil2 {fill:#5D98F0}
    .fil3 {fill:#474C53;fill-rule:nonzero}
   ]]>
  </style>
 </defs>
 <g id="Layer_x0020_1">
  <metadata id="CorelCorpID_0Corel-Layer"/>
  <path class="fil0" d="M5.66387 4.09166l0 1.20038c-3.93701e-006,0.170709 -0.312807,0.370811 -0.80848,0.503358 -0.385524,0.103098 -0.890417,0.177933 -1.44206,0.177933 -0.551638,0 -1.05653,-0.0748346 -1.44206,-0.177933 -0.495673,-0.132547 -0.808476,-0.33265 -0.808484,-0.503362l0 -1.20038c0,-0.249764 0.268098,-0.46437 0.701547,-0.609425 0.398591,-0.133386 0.946421,-0.21589 1.549,-0.21589 0.602575,0 1.1504,0.0825039 1.54899,0.21589 0.433449,0.145055 0.701543,0.359661 0.701543,0.609429z"/>
  <path class="fil1" d="M4.89368 3.68731c-0.376681,-0.126055 -0.899894,-0.204024 -1.48035,-0.204024 -0.580453,0 -1.10367,0.0779685 -1.48035,0.204024 -0.341815,0.11439 -0.553244,0.258213 -0.553244,0.404343 0,0.146134 0.211429,0.289957 0.553244,0.404346 0.376681,0.126055 0.899898,0.204024 1.48035,0.204024 0.580453,0 1.10367,-0.0779685 1.48035,-0.204024 0.341815,-0.11439 0.553244,-0.258213 0.553244,-0.404346 0,-0.14613 -0.211429,-0.289953 -0.553244,-0.404343z"/>
  <path class="fil2" d="M2.56464 5.1897c-0.0587362,-0.0105315 -0.114894,0.0285472 -0.125425,0.0872795 -0.0105276,0.0587362 0.0285512,0.114894 0.0872835,0.125421 0.284386,0.0511339 0.565654,0.0731378 0.843252,0.0713583 0.277949,-0.00177953 0.551488,-0.0271969 0.82026,-0.0709331 0.0589685,-0.00959055 0.0989961,-0.0651772 0.0894055,-0.124146 -0.00959449,-0.0589724 -0.0651772,-0.099 -0.12415,-0.0894055 -0.25924,0.042185 -0.52161,0.0666929 -0.786366,0.0683858 -0.265094,0.00169685 -0.533382,-0.0192598 -0.80426,-0.0679606z"/>
  <path class="fil3" d="M4.98097 3.11592c-0.402976,0.226972 -0.957366,0.367366 -1.56763,0.367366 -0.610268,0 -1.16466,-0.140394 -1.56764,-0.367366 -0.421925,-0.237646 -0.682906,-0.572295 -0.682906,-0.947614 0,-0.375319 0.260972,-0.709969 0.682906,-0.947618 0.402976,-0.226972 0.95737,-0.367358 1.56764,-0.367358 0.610268,0 1.16466,0.140386 1.56763,0.367358 0.421933,0.23765 0.682902,0.572299 0.682902,0.947618 0,0.375319 -0.260976,0.709969 -0.682902,0.947614z"/>
 </g>
 <rect class="fil4" width="6.82666" height="6.82666"/>
</svg>
