<svg fill="#000000" xmlns="http://www.w3.org/2000/svg"  viewBox="0 0 30 30" width="30px" height="30px"><path d="M 18 6 C 16.871019 6 15.856228 6.472264 15.128906 7.2246094 C 14.780036 7.0826163 14.399918 7 14 7 C 13.05669 7 12.225713 7.4443479 11.675781 8.125 C 11.46384 8.0485852 11.23836 8 11 8 C 10.633946 8 10.295061 8.1058114 10 8.2773438 C 9.7049394 8.1058114 9.3660536 8 9 8 C 7.895 8 7 8.895 7 10 L 11 10 L 13 10 L 14 10 L 17 10 L 22 10 L 24 10 C 24 8.895 23.105 8 22 8 C 21.820967 8 21.651423 8.0320962 21.486328 8.0761719 C 20.804583 6.8441872 19.507613 6 18 6 z M 5.6699219 12 C 4.7029219 12 3.8741719 12.691578 3.7011719 13.642578 L 2.1816406 22 L 2 22 A 1.0001 1.0001 0 1 0 2 24 L 28 24 A 1.0001 1.0001 0 1 0 28 22 L 27.818359 22 C 27.617693 20.895852 26.797222 16.377159 26.298828 13.638672 C 26.125828 12.687672 25.296078 12 24.330078 12 L 5.6699219 12 z M 11.5 15 C 12.152 15 12.702203 15.419 12.908203 16 L 17.091797 16 C 17.298797 15.419 17.848 15 18.5 15 C 19.328 15 20 15.672 20 16.5 C 20 16.886 19.850328 17.234 19.611328 17.5 C 19.850328 17.766 20 18.114 20 18.5 C 20 19.328 19.328 20 18.5 20 C 17.672 20 17 19.328 17 18.5 C 17 18.324 17.035797 18.157 17.091797 18 L 12.908203 18 C 12.964203 18.157 13 18.324 13 18.5 C 13 19.328 12.328 20 11.5 20 C 10.672 20 10 19.328 10 18.5 C 10 18.114 10.149672 17.766 10.388672 17.5 C 10.149672 17.234 10 16.886 10 16.5 C 10 15.672 10.672 15 11.5 15 z"/></svg>