<?xml version="1.0"?><svg fill="#000000" xmlns="http://www.w3.org/2000/svg"  viewBox="0 0 30 30" width="30px" height="30px">    <path d="M23.5,6c-0.173,0-0.339,0.027-0.505,0.051C22.995,6.034,23,6.017,23,6c0-1.837-1.652-3.289-3.551-2.951 c-1.193,0.212-2.173,1.186-2.395,2.378c-0.139,0.745,0,1.448,0.328,2.03c0.453,0.803,0.363,1.799-0.289,2.451l-8.117,8.117 c-0.787-0.787-1.948-1.201-3.194-0.954c-1.309,0.26-2.39,1.302-2.687,2.604C2.571,21.967,4.298,24,6.5,24 c0.173,0,0.339-0.027,0.505-0.051C7.005,23.966,7,23.983,7,24c0,1.837,1.652,3.289,3.551,2.951c1.193-0.212,2.173-1.186,2.395-2.378 c0.139-0.745,0-1.448-0.328-2.03c-0.453-0.803-0.363-1.799,0.289-2.451l8.117-8.117c0.787,0.787,1.948,1.201,3.194,0.953 c1.309-0.261,2.39-1.302,2.686-2.604C27.429,8.033,25.702,6,23.5,6z"/></svg>