<?xml version="1.0"?><svg fill="#000000" xmlns="http://www.w3.org/2000/svg"  viewBox="0 0 30 30" width="30px" height="30px">    <path d="M 8 3 C 7.448 3 7 3.448 7 4 L 7 7 L 23 7 L 23 4 C 23 3.448 22.552 3 22 3 L 8 3 z M 7 9 C 7 9 5 12 5 15 L 5 25 C 5 26.105 5.895 27 7 27 L 23 27 C 24.105 27 25 26.105 25 25 L 25 15 C 25 12 23 9 23 9 L 7 9 z M 13.304688 13 C 13.694688 13 14 13.533953 14 14.501953 C 14 15.572953 13.416656 16 12.847656 16 C 12.333656 16 11.728516 15.744 11.728516 14.875 C 11.727516 13.838 12.437688 13 13.304688 13 z M 16.695312 13 C 17.562313 13 18.271484 13.838 18.271484 14.875 C 18.271484 15.744 17.665344 16 17.152344 16 C 16.583344 16 16 15.572953 16 14.501953 C 16 13.533953 16.305312 13 16.695312 13 z M 10.474609 16.818359 C 10.778609 16.818359 11.095391 17.095797 11.400391 17.466797 C 11.622391 17.736797 12 18.153719 12 18.636719 C 12 18.974719 11.574719 20 10.636719 20 C 10.026719 20 9.3333906 19.602156 9.2753906 18.535156 C 9.2343906 17.799156 9.9206094 16.818359 10.474609 16.818359 z M 19.525391 16.818359 C 20.079391 16.818359 20.765609 17.799156 20.724609 18.535156 C 20.666609 19.602156 19.973281 20 19.363281 20 C 18.425281 20 18 18.974719 18 18.636719 C 18 18.153719 18.377609 17.736797 18.599609 17.466797 C 18.904609 17.095797 19.222391 16.818359 19.525391 16.818359 z M 15 18 C 15.708 18 15.984953 18.536 16.126953 19.25 C 16.404953 20.657 18 20.665859 18 22.005859 C 18 22.356859 17.735266 23 16.947266 23 C 16.303266 23 15.985 22.582031 15 22.582031 C 14.015 22.582031 13.696734 23 13.052734 23 C 12.264734 23 12 22.356859 12 22.005859 C 12 20.665859 13.596 20.657 13.875 19.25 C 14.017 18.536 14.292 18 15 18 z"/></svg>