<svg fill="#000000" xmlns="http://www.w3.org/2000/svg"  viewBox="0 0 30 30" width="30px" height="30px"><path d="M 5.6699219 10 C 4.7029219 10 3.8741719 10.691578 3.7011719 11.642578 L 2.1816406 20 L 2 20 A 1.0001 1.0001 0 1 0 2 22 L 28 22 A 1.0001 1.0001 0 1 0 28 20 L 27.818359 20 C 27.617693 18.895852 26.797222 14.377159 26.298828 11.638672 C 26.125828 10.687672 25.296078 10 24.330078 10 L 5.6699219 10 z M 11.5 13 C 12.152 13 12.702203 13.419 12.908203 14 L 17.091797 14 C 17.298797 13.419 17.848 13 18.5 13 C 19.328 13 20 13.672 20 14.5 C 20 14.886 19.850328 15.234 19.611328 15.5 C 19.850328 15.766 20 16.114 20 16.5 C 20 17.328 19.328 18 18.5 18 C 17.672 18 17 17.328 17 16.5 C 17 16.324 17.035797 16.157 17.091797 16 L 12.908203 16 C 12.964203 16.157 13 16.324 13 16.5 C 13 17.328 12.328 18 11.5 18 C 10.672 18 10 17.328 10 16.5 C 10 16.114 10.149672 15.766 10.388672 15.5 C 10.149672 15.234 10 14.886 10 14.5 C 10 13.672 10.672 13 11.5 13 z"/></svg>