<svg fill="#000000" xmlns="http://www.w3.org/2000/svg"  viewBox="0 0 30 30" width="30px" height="30px"><path d="M 15 2 C 12.619 2 9.9145781 6.197375 9.1425781 7.484375 C 8.9565781 7.793375 8.9528594 8.1781875 9.1308594 8.4921875 C 9.3088594 8.8061875 9.64 9 10 9 L 14 9 L 14 11 L 10 11 A 1.0001 1.0001 0 1 0 10 13 L 14 13 L 14 15 L 11 15 A 1.0001 1.0001 0 1 0 11 17 L 14 17 L 14 19 L 13 19 A 1.0001 1.0001 0 1 0 13 21 L 14 21 L 14 22 C 14 23.333333 12.555556 25 10 25 A 1.0001 1.0001 0 1 0 10 27 C 12.208573 27 13.961701 25.991003 15 24.599609 C 16.038299 25.991003 17.791427 27 20 27 A 1.0001 1.0001 0 1 0 20 25 C 17.444444 25 16 23.333333 16 22 L 16 21 L 17 21 A 1.0001 1.0001 0 1 0 17 19 L 16 19 L 16 17 L 19 17 A 1.0001 1.0001 0 1 0 19 15 L 16 15 L 16 13 L 20 13 A 1.0001 1.0001 0 1 0 20 11 L 16 11 L 16 9 L 20 9 C 20.36 9 20.691141 8.8061875 20.869141 8.4921875 C 21.047141 8.1781875 21.043422 7.793375 20.857422 7.484375 C 20.085422 6.197375 17.381 2 15 2 z"/></svg>