<?xml version="1.0" encoding="UTF-8"?><svg id="Layer_1" xmlns="http://www.w3.org/2000/svg" width="173.4mm" height="173.4mm" viewBox="0 0 491.52 491.52"><defs><style>.cls-1{fill-rule:evenodd;}.cls-1,.cls-2,.cls-3{stroke-width:0px;}.cls-3{fill:none;}</style></defs><g id="Layer_1-2"><path class="cls-1" d="m407.8,294.6c0-17.98-19.3-33.43-50.51-43.88-28.7-9.6-68.14-15.54-111.53-15.54s-82.83,5.94-111.53,15.54c-31.21,10.44-50.51,25.9-50.51,43.88v86.43c0,12.29,22.52,26.7,58.21,36.24,27.76,7.42,64.11,12.81,103.83,12.81s76.07-5.39,103.83-12.81c35.69-9.54,58.21-23.95,58.21-36.24v-86.43h0Zm-106.12,94.4c-19.35,3.15-39.05,4.98-59.06,5.11-19.99.13-40.24-1.46-60.71-5.14-4.23-.76-7.04-4.8-6.28-9.03.76-4.23,4.8-7.04,9.03-6.28h0c19.5,3.51,38.82,5.02,57.91,4.89,19.06-.12,37.95-1.89,56.62-4.92,4.25-.69,8.25,2.19,8.94,6.44.69,4.25-2.19,8.25-6.44,8.94Zm50.66-60.29c-27.12,9.08-64.79,14.69-106.59,14.69s-79.46-5.61-106.59-14.69c-24.61-8.24-39.83-18.59-39.83-29.11s15.22-20.88,39.83-29.11c27.12-9.08,64.79-14.69,106.59-14.69s79.46,5.61,106.59,14.69c24.61,8.24,39.83,18.59,39.83,29.11s-15.22,20.88-39.83,29.11Z"/><path class="cls-2" d="m358.63,224.35c-29.01,16.34-68.93,26.45-112.87,26.45s-83.86-10.11-112.87-26.45c-30.38-17.11-49.17-41.21-49.17-68.23s18.79-51.12,49.17-68.23c29.01-16.34,68.93-26.45,112.87-26.45s83.86,10.11,112.87,26.45c30.38,17.11,49.17,41.21,49.17,68.23s-18.79,51.12-49.17,68.23h0Z"/></g><rect class="cls-3" y="0" width="491.52" height="491.52"/></svg>