<svg xmlns="http://www.w3.org/2000/svg" viewBox="0 0 32 32"><g id="meat_2" data-name="meat 2"><path d="M22.22,12.85A6,6,0,0,1,20,8.28,6.28,6.28,0,0,0,8.38,4.94C3.9,11.94,3,19.44,6.13,24.52c.68,1.13,3.28,4.87,7.72,5.47a9.07,9.07,0,0,0,1.28.09,12,12,0,0,0,7.35-2.65A9.08,9.08,0,0,0,26,21.07,10,10,0,0,0,22.22,12.85ZM24,20.93a7,7,0,0,1-2.76,4.94A9.75,9.75,0,0,1,14.11,28c-3.56-.48-5.7-3.59-6.28-4.53C5.14,19.06,6,12.37,10.06,6A4.28,4.28,0,0,1,18,8.29a8,8,0,0,0,3,6.09A7.94,7.94,0,0,1,24,20.93Z"/><path d="M18.32,13.45A5.46,5.46,0,0,1,16,8.9a2.91,2.91,0,0,0-5.45-1.4c-1.61,3-3.95,8.71-1.45,13.93.48,1,1.76,3.69,4.62,4.53a6.34,6.34,0,0,0,1.84.26,7,7,0,0,0,6.36-3.83C23.14,19.5,21.6,15.65,18.32,13.45Zm1.74,8.16c-.81,1.89-3.62,3.07-5.8,2.43-2-.59-3-2.61-3.38-3.47-2.19-4.58.26-10,1.41-12.11A.87.87,0,0,1,13.08,8a.91.91,0,0,1,.9.9,7.44,7.44,0,0,0,3.23,6.21C19.94,17,20.81,19.86,20.06,21.61Z"/><path d="M15.5,18A2.5,2.5,0,1,0,18,20.5,2.5,2.5,0,0,0,15.5,18Zm0,3a.5.5,0,1,1,.5-.5A.5.5,0,0,1,15.5,21Z"/></g></svg>