<svg fill="#000000" xmlns="http://www.w3.org/2000/svg"  viewBox="0 0 30 30" width="30px" height="30px"><path d="M 18 6 C 16.871019 6 15.856228 6.472264 15.128906 7.2246094 C 14.780036 7.0826163 14.399918 7 14 7 C 13.05669 7 12.225713 7.4443479 11.675781 8.125 C 11.46384 8.0485852 11.23836 8 11 8 C 10.633946 8 10.295061 8.1058114 10 8.2773438 C 9.7049394 8.1058114 9.3660536 8 9 8 C 7.895 8 7 8.895 7 10 L 11 10 L 13 10 L 17 10 L 22 10 L 24 10 C 24 8.895 23.105 8 22 8 C 21.820967 8 21.651423 8.0320962 21.486328 8.0761719 C 20.804583 6.8441872 19.507613 6 18 6 z M 5.6699219 12 C 4.7029219 12 3.8741719 12.691578 3.7011719 13.642578 L 2.1816406 22 L 2 22 A 1.0001 1.0001 0 1 0 2 24 L 28 24 A 1.0001 1.0001 0 1 0 28 22 L 27.818359 22 C 27.617693 20.895852 26.797222 16.377159 26.298828 13.638672 C 26.125828 12.687672 25.296078 12 24.330078 12 L 5.6699219 12 z M 13.720703 14 C 14.063703 14 14.333984 14.475937 14.333984 15.335938 C 14.333984 16.286938 13.821312 16.666016 13.320312 16.666016 C 12.868313 16.666016 12.333984 16.439016 12.333984 15.666016 C 12.332984 14.745016 12.957703 14 13.720703 14 z M 16.279297 14 C 17.042297 14 17.666016 14.745969 17.666016 15.667969 C 17.666016 16.440969 17.131688 16.667969 16.679688 16.667969 C 16.178687 16.667969 15.666016 16.286937 15.666016 15.335938 C 15.667016 14.474937 15.936297 14 16.279297 14 z M 11.212891 16.666016 C 11.435891 16.666016 11.669578 16.898984 11.892578 17.208984 C 12.055578 17.434984 12.332031 17.784453 12.332031 18.189453 C 12.333031 18.472453 12.020031 19.332031 11.332031 19.332031 C 10.884031 19.332031 10.376984 18.999469 10.333984 18.105469 C 10.303984 17.488469 10.806891 16.666016 11.212891 16.666016 z M 18.785156 16.666016 C 19.191156 16.666016 19.694063 17.488469 19.664062 18.105469 C 19.622062 18.999469 19.114969 19.332031 18.667969 19.332031 C 17.979969 19.332031 17.667969 18.472453 17.667969 18.189453 C 17.667969 17.784453 17.943469 17.434984 18.105469 17.208984 C 18.328469 16.897984 18.562156 16.666016 18.785156 16.666016 z M 14.998047 18 C 15.628047 18 15.874 18.429 16 19 C 16.247 20.125 17.666016 20.131125 17.666016 21.203125 C 17.667016 21.484125 17.430469 22 16.730469 22 C 16.157469 22 15.876 21.667969 15 21.667969 C 14.124 21.667969 13.842531 22 13.269531 22 C 12.568531 22 12.332031 21.484125 12.332031 21.203125 C 12.332031 20.131125 13.751047 20.126 13.998047 19 C 14.124047 18.429 14.369047 18 14.998047 18 z"/></svg>