<svg width="2340" height="1560" viewBox="0 0 2340 1560" fill="none" xmlns="http://www.w3.org/2000/svg">
<path d="M1324.8 494.1C1363.9 494.1 1395.8 462.2 1395.8 423.1C1395.8 383.9 1364 352.1 1324.8 352.1C1285.7 352.1 1253.8 384 1253.8 423.1C1253.8 462.2 1285.6 494.1 1324.8 494.1ZM1324.8 354C1362.8 354 1393.8 385 1393.8 423C1393.8 461.1 1362.9 492 1324.8 492C1286.8 492 1255.8 461 1255.8 423C1255.8 385 1286.7 354 1324.8 354Z" fill="#E0BDB3"/>
<path d="M1432.7 900C1412.2 900 1392.1 896.2 1373.2 888.7C1315.3 869 1241.4 859.5 1147.5 859.5C1099.2 859.5 1052.8 861.9 1011.8 864C959.5 866.7 918.2 868.8 895.8 864.7C770.3 841.5 679.2 731.8 679.2 604.1C679.2 457.9 798.2 339 944.5 339C980.1 339 1061.6 353.5 1115.4 408.5C1250 546.4 1367.8 564.9 1438.1 576C1458.8 579.3 1475.2 581.8 1486.8 586.7C1551 609.5 1594.1 670.6 1594.1 738.7C1594.1 827.6 1521.7 900 1432.7 900ZM1147.4 857.5C1241.6 857.5 1315.6 867.1 1373.8 886.9C1392.6 894.3 1412.4 898.1 1432.6 898.1C1520.5 898.1 1592.1 826.6 1592.1 738.8C1592.1 671.5 1549.5 611.2 1486.1 588.6C1474.7 583.9 1458.4 581.3 1437.8 578C1367.2 566.9 1249.1 548.3 1113.8 409.9C1060.6 355.4 979.7 341 944.4 341C799.2 341 681.1 459 681.1 604.1C681.1 730.9 771.5 839.7 896.1 862.8C918.2 866.9 959.4 864.8 1011.6 862.1C1052.6 859.9 1099.1 857.5 1147.4 857.5Z" fill="#E0BDB3"/>
<path d="M1553 1209C1550.3 1208.8 1488.1 1203 1477 1175.8C1472.9 1165.8 1476.3 1154.2 1487.3 1141.3C1509.7 1114.9 1532.3 1112.4 1548.8 1110.5C1560.6 1109.2 1569.1 1108.2 1573.7 1100C1588.2 1073.7 1603.3 1062.2 1618.5 1066C1637.2 1070.6 1652.7 1058.2 1665.9 1028.2C1671.1 1016.5 1679.2 1009.4 1688.1 1008.9C1694.9 1008.5 1701.4 1012 1705 1018C1709.4 1025.4 1708.8 1034.9 1703.2 1043.8C1665.6 1104.3 1554.8 1207.7 1553.7 1208.7C1553.5 1208.9 1553.3 1209 1553 1209ZM1613.1 1067.4C1600.6 1067.4 1587.6 1078.9 1575.4 1101.1C1570.4 1110.2 1560.9 1111.3 1549 1112.6C1531.9 1114.5 1510.7 1116.9 1488.8 1142.7C1478.4 1155 1475 1165.9 1478.8 1175.2C1489 1200.1 1547 1206.5 1552.6 1207.1C1559.3 1200.8 1665 1101.5 1701.5 1042.9C1706.7 1034.6 1707.3 1025.9 1703.3 1019.1C1700.1 1013.7 1694.3 1010.6 1688.3 1011C1680.1 1011.5 1672.6 1018.1 1667.8 1029.2C1656 1056 1642.3 1069.2 1626 1069.2C1623.4 1069.2 1620.7 1068.9 1618 1068.2C1616.4 1067.6 1614.7 1067.4 1613.1 1067.4Z" fill="#E0BDB3"/>
<path d="M1424 1144.2C1424.4 1144.6 1424.9 1145.1 1425.4 1145.5C1425.6 1144.8 1425.9 1144.1 1426.1 1143.4C1425.9 1143.2 1425.6 1143 1425.4 1142.7C1411.3 1129 1414.9 1116.9 1418 1106.2C1420.6 1097.3 1423.1 1088.8 1414.2 1081.8C1392.1 1064.1 1383.5 1047.9 1389.2 1034.8C1397.3 1016.4 1387.6 998.4 1359.7 979.9C1349.8 973.3 1344.9 964.7 1346.2 956.2C1346.5 954.5 1347 952.8 1347.7 951.3C1349.8 946.8 1353.7 943.4 1358.5 942C1365.4 940 1372.7 942.7 1378.6 949.4C1399.5 973.3 1440.3 1046.8 1470.4 1103.6C1471 1103.4 1471.7 1103.2 1472.3 1103C1442.1 1046.1 1401.1 972.2 1380.1 948.1C1373.7 940.8 1365.7 937.9 1358 940.1C1350.8 942.2 1345.4 948.4 1344.2 956C1342.8 965.3 1348 974.7 1358.6 981.7C1385.6 999.6 1395 1016.8 1387.4 1034.2C1381.2 1048.4 1389.8 1065 1413 1083.5C1420.8 1089.7 1418.7 1096.8 1416.1 1105.8C1413 1116.3 1409.1 1129.6 1424 1144.2Z" fill="#E0BDB3"/>
<path d="M1479 1193.6C1471.7 1182.7 1446.7 1140.5 1455.6 1091.1C1459.9 1067.4 1474.6 1062.7 1487.5 1058.6C1498.2 1055.2 1508.3 1051.9 1509.4 1038.3C1512.2 1003.9 1522.7 984.1 1539.9 980.9C1563.8 976.5 1575.3 954.6 1575 913.9C1574.9 899.4 1580.3 888.5 1589.8 883.9C1592.8 882.5 1596 881.8 1599.2 881.8C1604.1 881.8 1609 883.5 1612.8 886.7C1619.6 892.3 1621.9 901.6 1619.1 912.2C1608.9 950.8 1559.8 1046.8 1522.7 1116.6C1523.6 1116.2 1524.6 1115.9 1525.5 1115.5C1562.6 1045.8 1610.9 951.1 1621 912.7C1624 901.4 1621.4 891.4 1614 885.2C1607 879.4 1597.2 878.2 1588.9 882.2C1578.6 887.1 1572.8 898.7 1573 914C1573.3 953.5 1562.4 974.8 1539.6 979C1521.2 982.4 1510.4 1002.3 1507.5 1038.2C1506.5 1050.5 1497.9 1053.2 1487 1056.7C1474.2 1060.8 1458.2 1065.9 1453.7 1090.8C1443.2 1149 1479 1197.2 1479.4 1197.7C1479.6 1198 1479.9 1198.1 1480.2 1198.1C1480.2 1198.1 1480.2 1198.1 1480.3 1198.1C1480.5 1198.1 1480.8 1198 1480.9 1197.8C1480.2 1196.3 1479.6 1195 1479 1193.6Z" fill="#E0BDB3"/>
<path fill-rule="evenodd" clip-rule="evenodd" d="M1553.1 1209H1329.7V1208.5C1314.8 1208.5 1316.2 1155.4 1319.9 1157.2L1391.1 1155.8C1395.3 1128.6 1417.3 1107.3 1444.8 1104.1C1445.1 1100.2 1446.1 1096 1448 1092.1C1454.3 1078.8 1467.7 1072 1477.9 1076.8C1488.1 1081.6 1491.2 1096.3 1484.8 1109.6C1483.7 1111.9 1482.4 1114 1480.9 1115.9C1491.7 1128.2 1492.8 1148.1 1479 1166.6L1479.1 1166.7C1486.9 1160.8 1496.5 1157.3 1507 1157.3C1532.5 1157.3 1553.2 1178 1553.2 1203.5C1553.4 1205.4 1553.3 1207.2 1553.1 1209Z" fill="#5765AC"/>
<path d="M831 1169.9C830.9 1169.9 830.7 1169.9 830.6 1169.8C830.3 1169.7 830.1 1169.4 830 1169.1C829.5 1166.9 784 944.801 778.3 919.901C775.4 907.501 780.6 895.701 789.8 893.401C800.3 890.801 814.9 901.401 824.5 938.801C827.1 948.901 833.7 954.001 841.3 959.901C853.3 969.201 868.2 980.701 872.6 1017.5C875 1037.6 849.2 1153.4 848.1 1158.3C848 1158.5 847.9 1158.8 847.7 1158.9L831.6 1169.8C831.3 1169.8 831.2 1169.9 831 1169.9ZM792.7 895.001C791.8 895.001 791 895.101 790.2 895.301C782 897.301 777.5 908.101 780.1 919.401C785.6 943.201 827.6 1147.8 831.6 1167.2L846.2 1157.4C847.9 1149.8 872.9 1036.9 870.6 1017.7C866.3 981.701 852.3 971.001 840 961.501C832.1 955.401 825.3 950.101 822.5 939.301C814.1 906.301 801.7 895.001 792.7 895.001Z" fill="#E0BDB3"/>
<path fill-rule="evenodd" clip-rule="evenodd" d="M803.101 1185.2C803.101 1185.2 694.301 1019.3 677.401 969.701C667.401 940.301 711.301 930.701 713.701 968.301C716.001 1005.9 729.601 1016.6 744.301 1018.2C757.801 1019.7 767.801 1033.6 772.101 1062.2C775.501 1084.6 808.601 1066.4 817.301 1100.5C828.801 1145.8 803.101 1185.2 803.101 1185.2Z" fill="#F78F1E"/>
<path fill-rule="evenodd" clip-rule="evenodd" d="M851.6 1171C851.6 1171 662 1050.9 645.6 1038C628.1 1024.2 601.4 1041.5 644.6 1077C662 1091.3 644.6 1113.5 685.6 1139C699.5 1147.6 796.6 1169 796.6 1169L851.6 1171Z" fill="#5765AC"/>
<path fill-rule="evenodd" clip-rule="evenodd" d="M1004.3 1209H713.6V1208.3C694.2 1208.2 678.4 1192.5 678.4 1173.1C678.4 1153.6 694.2 1137.9 713.6 1137.9C719.3 1137.9 724.6 1139.2 729.3 1141.6L793.4 1139.8C798.8 1104.4 827.5 1076.7 863.3 1072.6C863.6 1067.5 865 1062.1 867.5 1056.9C875.7 1039.6 893.2 1030.7 906.4 1037C919.6 1043.3 923.7 1062.4 915.4 1079.7C914 1082.7 912.3 1085.4 910.4 1087.9C924.4 1104 925.8 1129.8 908 1153.9L908.2 1154.1C918.3 1146.4 930.9 1141.9 944.5 1141.9C977.7 1141.9 1004.7 1168.8 1004.7 1202.1C1004.7 1204.4 1004.5 1206.7 1004.3 1209Z" fill="#5765AC"/>
<path fill-rule="evenodd" clip-rule="evenodd" d="M758.801 1141.7C758.601 1142 758.301 1142.1 758.001 1142.1C757.801 1142.1 757.601 1142 757.401 1141.9L711.201 1110.3L685.301 1111.4C684.801 1111.4 684.301 1111 684.301 1110.4C684.301 1109.9 684.701 1109.4 685.301 1109.4L708.601 1108.4L662.801 1077C662.301 1076.7 662.201 1076.1 662.501 1075.6C662.801 1075.1 663.401 1075 663.901 1075.3L726.101 1117.9L722.101 1104.5C721.901 1104 722.201 1103.4 722.801 1103.3C723.301 1103.1 723.901 1103.4 724.001 1104L728.701 1119.8L758.601 1140.3C759.001 1140.6 759.101 1141.3 758.801 1141.7Z" fill="#FEEAE4"/>
<path fill-rule="evenodd" clip-rule="evenodd" d="M850.1 1166.3C850.4 1166.4 850.8 1166.4 851 1166.2C851.2 1166.1 851.3 1165.9 851.4 1165.8L874.1 1114.6L896.8 1101.9C897.3 1101.6 897.4 1101 897.1 1100.6C896.8 1100.1 896.2 1099.9 895.7 1100.2L875.3 1111.6L897.8 1060.8C898 1060.3 897.8 1059.7 897.3 1059.5C896.8 1059.3 896.2 1059.5 896 1060L865.5 1129L861.9 1115.5C861.8 1115 861.2 1114.7 860.7 1114.8C860.2 1114.9 859.9 1115.5 860 1116L864.3 1131.9L849.6 1165C849.4 1165.5 849.6 1166.1 850.1 1166.3Z" fill="#FEEAE4"/>
<path fill-rule="evenodd" clip-rule="evenodd" d="M1205.6 887H1140.3L1135.5 909.6L1106.5 1137H1055.5L1038.2 844C1037 826.9 1049.4 811.9 1066.4 809.9L1173.3 792.2L1167.5 764.1H1296.5L1301.9 787.1L1279.7 838.3C1267.1 867.8 1237.9 887 1205.6 887Z" fill="#303E7E"/>
<path fill-rule="evenodd" clip-rule="evenodd" d="M1210.1 767C1212 767 1213.6 768.6 1213.6 770.5C1213.6 772.4 1212 774 1210.1 774C1208.2 774 1206.6 772.4 1206.6 770.5C1206.6 768.6 1208.2 767 1210.1 767Z" fill="black"/>
<path fill-rule="evenodd" clip-rule="evenodd" d="M1212.1 782C1214 782 1215.6 783.6 1215.6 785.5C1215.6 787.4 1214 789 1212.1 789C1210.2 789 1208.6 787.4 1208.6 785.5C1208.6 783.6 1210.2 782 1212.1 782Z" fill="black"/>
<path fill-rule="evenodd" clip-rule="evenodd" d="M1200.1 764L1203.5 794.8C1203.6 795.3 1203.2 795.8 1202.6 795.9C1202.1 796 1201.6 795.6 1201.5 795L1198.1 764H1200.1Z" fill="black"/>
<path fill-rule="evenodd" clip-rule="evenodd" d="M1122 1016.2C1111.1 1018.4 1091.8 1004.6 1086.6 965.1C1082 930.4 1082.6 876.5 1082.6 876.5L1140.8 905.1L1122 1016.2Z" fill="black"/>
<path fill-rule="evenodd" clip-rule="evenodd" d="M1080.9 874.501C1081.1 874.301 1081.4 874.201 1081.7 874.301L1082.6 876.501L1088.3 1137.1H1086.3L1080.6 875.401C1080.6 875.001 1080.7 874.701 1080.9 874.501Z" fill="black"/>
<path fill-rule="evenodd" clip-rule="evenodd" d="M1101 1202H971V1209H1097.6L1101 1202Z" fill="black"/>
<path fill-rule="evenodd" clip-rule="evenodd" d="M1107.6 1132L1099.1 1198.8L1028 1196C1028 1196 1007.5 1195.4 1024 1192C1040.5 1188.6 1060.6 1175 1060.6 1175L1063.6 1136L1107.6 1132Z" fill="#FAAD74"/>
<path fill-rule="evenodd" clip-rule="evenodd" d="M1060.6 1136.8L1066.9 1135.4L1109.7 1132L1105.7 1158C1091.3 1147.1 1068.1 1137.8 1060.6 1137.1V1136.8Z" fill="black"/>
<path fill-rule="evenodd" clip-rule="evenodd" d="M971 1202H1098.6L1101.6 1175C1099 1175.4 1091.6 1179.1 1089.6 1179.9C1082.8 1182.6 1078.8 1185.3 1078.8 1185.3C1078.8 1185.3 1062.1 1171.1 1045.5 1165.4L1047.7 1174.6L971 1202Z" fill="#F78F1E"/>
<path d="M1054.3 1177.7C1054.3 1177.7 1054.4 1177.7 1054.3 1177.7C1054.6 1177.8 1054.9 1177.8 1055.2 1177.6C1056.3 1176.9 1066.3 1171 1067.8 1166.6C1069.4 1162 1066.9 1156.8 1062.1 1155.2C1059.8 1154.4 1057.3 1154.5 1055.2 1155.6C1053 1156.6 1051.4 1158.4 1050.6 1160.7C1049.1 1165 1053.2 1175.9 1053.7 1177.1C1053.9 1177.4 1054.1 1177.6 1054.3 1177.7ZM1061.7 1157.2C1065.3 1158.5 1067.2 1162.5 1065.9 1166C1064.9 1168.8 1058.6 1173.2 1055.2 1175.3C1053.8 1171.5 1051.6 1164.2 1052.5 1161.4C1053.1 1159.7 1054.4 1158.2 1056.1 1157.5C1057.8 1156.7 1059.7 1156.6 1061.5 1157.2C1061.5 1157.2 1061.6 1157.2 1061.7 1157.2Z" fill="black"/>
<path d="M1039.4 1176.5C1044.2 1178.3 1053.4 1177.8 1054.6 1177.8C1054.9 1177.8 1055.2 1177.6 1055.3 1177.4C1055.5 1177.2 1055.5 1176.9 1055.5 1176.6C1055.2 1175.3 1052.2 1164.1 1048.4 1161.4C1044.4 1158.5 1038.7 1159.3 1035.7 1163.2C1034.3 1165.1 1033.7 1167.5 1034.1 1169.8C1034.5 1172.2 1035.8 1174.2 1037.7 1175.7C1038.3 1176 1038.8 1176.3 1039.4 1176.5ZM1053.3 1175.8C1049.3 1175.9 1041.5 1175.8 1039 1174C1037.5 1172.9 1036.5 1171.3 1036.2 1169.4C1035.9 1167.6 1036.3 1165.7 1037.4 1164.2C1039.7 1161.1 1044.1 1160.5 1047.2 1162.8C1049.7 1164.7 1052.2 1172 1053.3 1175.8Z" fill="black"/>
<path fill-rule="evenodd" clip-rule="evenodd" d="M1295.4 1041.3L1212.3 996.6L1137.5 1036.6L1112.6 1209H1097.1L1133.6 911H1155.6L1148.5 960.1L1212.3 994.4L1283.3 956.5L1276.8 911H1296.8L1335.3 1209H1319.6L1295.4 1041.3ZM1148.2 962.2L1137.8 1034.1L1210.1 995.5L1148.2 962.2ZM1283.5 958.6L1214.4 995.5L1295.1 1038.8L1283.5 958.6Z" fill="black"/>
<path fill-rule="evenodd" clip-rule="evenodd" d="M1108.6 887H1315.5V911H1108.6V887Z" fill="#CA4540"/>
<path fill-rule="evenodd" clip-rule="evenodd" d="M1120.6 1209H1163.2C1167 1209 1170.6 1207.8 1173.7 1205.6L1236.6 1165.6L1232.5 1159.9C1232.5 1159.9 1190.4 1185.1 1166.7 1201.9H1120.5V1209H1120.6Z" fill="black"/>
<path fill-rule="evenodd" clip-rule="evenodd" d="M1206.6 1100L1221.6 1162L1179.6 1158L1167.3 1119.5L1206.6 1100Z" fill="#FAAD74"/>
<path fill-rule="evenodd" clip-rule="evenodd" d="M1213.3 1127.9L1207.4 1103.6L1173.5 1116.4L1167.5 1119.4C1174.4 1119.2 1196.3 1119.2 1213.3 1127.9Z" fill="black"/>
<path fill-rule="evenodd" clip-rule="evenodd" d="M1120.6 1202H1166.8L1232.6 1160L1216.7 1139.5C1214.8 1141.3 1213.2 1145.7 1212.1 1147.5C1208.2 1153.6 1206.4 1158.2 1206.4 1158.2C1206.4 1158.2 1192.8 1148.8 1175.7 1150L1177.7 1159L1143.7 1194L1120.6 1202Z" fill="#F78F1E"/>
<path d="M1183.8 1160.9C1184.1 1160.9 1184.4 1160.8 1184.6 1160.5C1185.4 1159.5 1192.6 1150.4 1192.5 1145.8C1192.4 1140.9 1188.2 1137 1183.2 1137.1C1180.8 1137.2 1178.5 1138.1 1176.8 1139.9C1175.1 1141.6 1174.2 1143.9 1174.3 1146.3C1174.4 1150.9 1182.1 1159.6 1183 1160.6C1183.2 1160.7 1183.5 1160.9 1183.8 1160.9ZM1183.4 1139.1C1187.2 1139.1 1190.4 1142.1 1190.5 1145.8C1190.6 1148.7 1186.2 1155.1 1183.8 1158.3C1181.2 1155.3 1176.5 1149.2 1176.4 1146.2C1176.4 1144.4 1177 1142.6 1178.3 1141.3C1179.6 1140 1181.4 1139.2 1183.2 1139.1C1183.3 1139.1 1183.3 1139.1 1183.4 1139.1Z" fill="black"/>
<path d="M1169.4 1165C1174.5 1165 1183 1161.3 1184.1 1160.8C1184.4 1160.7 1184.6 1160.4 1184.7 1160.2C1184.8 1159.9 1184.7 1159.6 1184.6 1159.4C1183.8 1158.3 1177.1 1148.9 1172.6 1147.7C1167.8 1146.4 1162.7 1149.2 1161.4 1153.9C1160.7 1156.2 1161 1158.6 1162.2 1160.7C1163.4 1162.8 1165.3 1164.3 1167.7 1164.9C1168.1 1164.9 1168.7 1165 1169.4 1165ZM1182.1 1159.5C1178.4 1161 1171 1163.7 1168.1 1162.9C1166.3 1162.4 1164.8 1161.2 1163.8 1159.6C1162.9 1158 1162.6 1156.1 1163.2 1154.3C1164.2 1150.6 1168.2 1148.5 1171.9 1149.5C1174.9 1150.3 1179.8 1156.3 1182.1 1159.5Z" fill="black"/>
<path fill-rule="evenodd" clip-rule="evenodd" d="M1250.6 887H1150.6C1150.6 887 1184.4 936.2 1199.5 1010.8C1208.6 1055.4 1214.5 1105.9 1214.5 1105.9L1167.5 1121.9L1075.7 873.6C1068.6 854.3 1080.2 833.2 1100.3 829L1302.1 787L1307.4 809.4C1316.6 847.9 1290.1 884.5 1250.6 887Z" fill="#5765AC"/>
<path fill-rule="evenodd" clip-rule="evenodd" d="M1279.9 791.599L1281.9 791.199L1286.2 812.099C1287.6 818.899 1286.2 825.799 1282.3 831.499C1278.4 837.199 1272.4 840.999 1265.6 841.999L1115 865.899L1199 1111.3L1197.1 1111.9L1112.7 865.399C1112.6 865.099 1112.6 864.799 1112.8 864.599C1113 864.299 1113.2 864.199 1113.5 864.099L1265.2 840.099C1271.5 839.099 1277 835.699 1280.6 830.399C1284.2 825.099 1285.5 818.799 1284.2 812.499L1279.9 791.599Z" fill="black"/>
<path fill-rule="evenodd" clip-rule="evenodd" d="M1212.2 565.799C1225.8 562.799 1237.8 564.799 1239 570.199C1240.2 575.599 1230.1 582.499 1216.6 585.399C1203 588.399 1191 586.399 1189.8 580.999C1188.6 575.599 1198.7 568.799 1212.2 565.799Z" fill="black"/>
<path d="M1276.5 587.998H1178.4V686.098H1276.5V587.998Z" fill="#9AA0D0"/>
<path fill-rule="evenodd" clip-rule="evenodd" d="M1219 602.299C1214.8 603.199 1210.7 603.799 1206.9 603.999L1199.5 598.699L1194.5 635.999C1194.4 636.599 1193.9 636.999 1193.4 636.999C1192.8 636.999 1192.5 636.499 1192.5 635.999L1197.5 598.599L1190.1 602.099C1186.9 600.799 1184.8 598.999 1184.3 596.599C1184.1 595.499 1184.2 594.299 1184.6 593.099H1184.5L1189.7 579.999H1189.8C1189.6 580.699 1189.6 581.399 1189.7 582.099C1190.9 587.499 1202.9 589.499 1216.5 586.499C1230.1 583.499 1240.1 576.699 1238.9 571.299C1238.9 571.099 1238.8 570.899 1238.7 570.699H1238.8C1238.8 570.699 1246.2 578.999 1248 582.599C1249.6 589.599 1236.6 598.399 1219 602.299ZM1203.1 619.999C1204.5 619.999 1205.6 621.099 1205.6 622.499C1205.6 623.899 1204.5 624.999 1203.1 624.999C1201.7 624.999 1200.6 623.899 1200.6 622.499C1200.6 621.099 1201.7 619.999 1203.1 619.999ZM1201.6 610.499C1201.6 609.099 1202.7 607.999 1204.1 607.999C1205.5 607.999 1206.6 609.099 1206.6 610.499C1206.6 611.899 1205.5 612.999 1204.1 612.999C1202.7 612.999 1201.6 611.899 1201.6 610.499Z" fill="black"/>
<path fill-rule="evenodd" clip-rule="evenodd" d="M1219 600.299C1214.8 601.199 1210.7 601.799 1206.9 601.999L1199.6 588.099L1190.1 600.099C1186.9 598.799 1184.8 596.999 1184.3 594.599C1184.1 593.499 1184.2 592.299 1184.6 591.099H1184.5L1190.1 577.999C1189.9 578.699 1189.7 579.899 1189.8 580.599C1190.6 585.799 1204.3 587.899 1217.9 584.899C1231.5 581.899 1240.1 574.799 1238.9 569.299C1238.9 569.099 1238.8 568.899 1238.7 568.699H1238.8C1238.8 568.699 1246.2 576.999 1248 580.599C1249.6 587.599 1236.6 596.399 1219 600.299Z" fill="#5765AC"/>
<path fill-rule="evenodd" clip-rule="evenodd" d="M1169 742.998H1025.6C1014.2 741.898 1010.5 732.798 1010.3 723.798C1010 713.198 1018.2 704.598 1028 704.598C1028.6 704.598 1029.2 704.598 1029.8 704.698L1085.7 698.898L1142.7 596.898C1142.7 596.898 1156.4 574.898 1166.7 587.898L1164.4 655.198L1169 742.998Z" fill="#9AA0D0"/>
<path fill-rule="evenodd" clip-rule="evenodd" d="M955.099 742.899H911.699L963.499 711.299L988.099 727.099L955.099 742.899Z" fill="#F49047"/>
<path fill-rule="evenodd" clip-rule="evenodd" d="M1019.5 736.399L1002.7 739.099C1002.7 739.099 989.9 743.399 983.5 743.299C948.5 742.999 949.9 742.899 944.7 742.899C941.1 737.199 959 733.199 970.2 731.599C970.2 731.599 976.3 729.199 972.3 724.699C972.3 724.699 959 716.399 948.8 723.599C932.9 734.699 929.5 737.599 921.6 740.999C916.2 743.299 908.6 742.999 908.6 742.999C925.2 729.099 926.9 727.899 940.6 715.999C947.9 709.699 949.8 699.699 1009.3 713.299L1016.6 712.999L1019.5 736.399Z" fill="#FAAD74"/>
<path fill-rule="evenodd" clip-rule="evenodd" d="M1024.3 737.298C1024.1 737.298 1023.8 737.298 1023.8 737.298L1011.3 737.698C1014.3 735.998 1016.6 731.998 1016.5 726.098C1016.4 718.898 1012.7 712.898 1008.6 712.998V712.898C1008.6 712.898 1023.6 711.298 1023.8 711.298C1027.9 711.198 1031.4 716.998 1031.5 724.198C1031.7 731.298 1028.4 737.198 1024.3 737.298Z" fill="#5765AC"/>
<path fill-rule="evenodd" clip-rule="evenodd" d="M1166.6 588C1166.6 588 1144.7 621.9 1150.9 690.9C1151.3 695.2 1167.6 764 1167.6 764H1296.6L1276.6 587H1251.6L1189.6 654L1178.6 588H1166.6Z" fill="#475598"/>
<path d="M1230.9 730.599H1232.9C1223.9 688.499 1226.7 653.399 1230.9 630.399C1233.1 618.499 1235.9 608.699 1238.4 601.299L1235.2 604.799C1233 611.699 1230.8 620.199 1229 629.999C1224.7 653.099 1222 688.299 1230.9 730.599Z" fill="#5765AC"/>
<path d="M1223.9 730.6H1225.9C1216.9 688.5 1219.7 653.4 1223.9 630.4C1225.1 623.8 1226.5 617.8 1228 612.6L1225.2 615.7C1224.1 620.1 1223 624.8 1222.1 630C1217.7 653.1 1215 688.3 1223.9 730.6Z" fill="#5765AC"/>
<path d="M1237.9 730.599H1239.9C1230.9 688.499 1233.7 653.399 1237.9 630.399C1241.8 609.199 1247.7 594.499 1250.4 588.299L1246.5 592.499C1243.4 600.199 1239.1 613.099 1236 629.899C1231.7 653.099 1229 688.299 1237.9 730.599Z" fill="#5765AC"/>
<path d="M1258.9 730.6H1260.9C1251.9 688.5 1254.7 653.4 1258.9 630.4C1263.1 607.6 1269.6 592.3 1272 587.1H1269.8C1267.1 593.1 1261 608.2 1257 630C1252.7 653.1 1250 688.3 1258.9 730.6Z" fill="#5765AC"/>
<path d="M1244.9 730.6H1246.9C1237.9 688.5 1240.7 653.4 1244.9 630.4C1249.1 607.6 1255.6 592.3 1258 587.1H1255.8C1253.1 593.1 1247 608.2 1243 630C1238.7 653.1 1236 688.3 1244.9 730.6Z" fill="#5765AC"/>
<path d="M1265.9 730.6H1267.9C1258.9 688.5 1261.7 653.4 1265.9 630.4C1269.1 613 1273.6 600 1276.7 592.4L1276.6 587.6C1273.8 594 1267.9 608.8 1264 629.9C1259.7 653.1 1257 688.3 1265.9 730.6Z" fill="#5765AC"/>
<path d="M1218.9 730.6C1209.9 688.5 1212.7 653.4 1216.9 630.4C1217.4 627.8 1217.9 625.3 1218.4 622.9L1215.8 625.7C1215.5 627.1 1215.2 628.5 1215 629.9C1210.7 653.1 1207.9 688.3 1216.9 730.6H1218.9Z" fill="#5765AC"/>
<path d="M1251.9 730.6H1253.9C1244.9 688.5 1247.7 653.4 1251.9 630.4C1256.1 607.6 1262.6 592.3 1265 587.1H1262.8C1260.1 593.1 1254 608.2 1250 630C1245.7 653.1 1243 688.3 1251.9 730.6Z" fill="#5765AC"/>
<path d="M1204.9 730.6C1197.3 694.8 1198.1 664.1 1201.2 641.6L1198.9 644.1C1196.1 666.5 1195.7 696.2 1202.9 730.6H1204.9Z" fill="#5765AC"/>
<path d="M1167.9 730.6H1169.9C1160.9 688.5 1163.7 653.4 1167.9 630.4C1171.3 612.1 1176.1 598.7 1179.1 591.4L1178.6 588.1H1178.4C1175.5 594.7 1169.9 609.3 1166 630C1161.7 653.1 1159 688.3 1167.9 730.6Z" fill="#5765AC"/>
<path d="M1211.9 730.6C1203.2 689.7 1205.5 655.5 1209.6 632.5L1207.2 635.1C1203.5 658.2 1201.7 691.3 1210 730.6H1211.9Z" fill="#5765AC"/>
<path d="M1174.9 730.6H1176.9C1167.9 688.5 1170.7 653.4 1174.9 630.4C1176.8 620.2 1179.1 611.6 1181.3 604.6L1180.6 600.4C1178 607.9 1175.2 617.9 1173 629.9C1168.7 653.1 1166 688.3 1174.9 730.6Z" fill="#5765AC"/>
<path d="M1162.9 730.6C1153.9 688.5 1156.7 653.4 1160.9 630.4C1164.9 608.9 1170.8 594.1 1173.5 588.1H1171.3C1168.4 594.7 1162.8 609.3 1158.9 630C1154.6 653.2 1151.8 688.4 1160.8 730.7H1162.9V730.6Z" fill="#5765AC"/>
<path d="M1197.9 730.599C1191.2 699.199 1191 671.699 1193.2 650.199L1191 652.599C1189.1 673.799 1189.6 700.399 1196 730.599H1197.9Z" fill="#5765AC"/>
<path d="M1188.9 730.6H1190.9C1183.1 694.2 1184.1 663 1187.3 640.3L1186.3 634.1C1182.4 657.2 1180.5 690.8 1188.9 730.6Z" fill="#5765AC"/>
<path d="M1181.9 730.6H1183.9C1174.9 688.5 1177.7 653.4 1181.9 630.4C1182.5 626.9 1183.2 623.6 1184 620.5L1183.2 615.6C1182.1 620 1181 624.8 1180 630C1175.7 653.1 1173 688.3 1181.9 730.6Z" fill="#5765AC"/>
<path fill-rule="evenodd" clip-rule="evenodd" d="M1201.6 742.999C1188.6 742.799 1184.5 733.299 1184.3 723.799C1184 713.199 1191.7 704.599 1201.4 704.599C1202.8 704.599 1269.6 696.899 1269.6 696.899C1269.6 696.899 1264.2 673.499 1255.6 628.899C1251.3 606.799 1259.2 585.199 1267.6 581.899C1288.6 573.699 1300.6 585.899 1300.6 585.899L1328 712.499C1331.4 728.199 1319.4 742.999 1303.4 742.999H1201.6Z" fill="#9AA0D0"/>
<path fill-rule="evenodd" clip-rule="evenodd" d="M1269.6 697L1257.1 698.4C1247.7 686 1253 675.6 1256.5 666.9C1258.5 662 1258.4 655.6 1258.6 651.9L1252.9 624.6C1252.8 624.1 1253.1 623.5 1253.7 623.4C1254.2 623.3 1254.8 623.6 1254.9 624.2L1269.6 697Z" fill="black"/>
<path fill-rule="evenodd" clip-rule="evenodd" d="M1186.9 725.898C1188 727.098 1188.6 728.398 1188.6 729.698C1188.7 734.898 1183.3 739.298 1169.8 739.598C1163 739.698 1157 738.098 1153.6 735.498C1152.7 734.798 1148.1 730.898 1143.5 726.698C1142 726.398 1140.7 726.198 1139.5 725.998C1135.7 727.698 1131.4 731.298 1124.8 738.498C1119.3 744.498 1114.9 742.698 1114.9 742.698C1116 740.898 1117 739.198 1118.1 737.298C1117.7 737.698 1117.3 738.198 1116.9 738.598C1111.4 744.598 1107 742.798 1107 742.798C1108.1 740.998 1109.1 739.298 1110.2 737.398C1109.8 737.798 1109.4 738.298 1109 738.698C1103.5 744.698 1099.1 742.898 1099.1 742.898C1103.7 735.598 1106.3 728.998 1115.1 714.298C1118.7 708.198 1124.8 702.898 1140.8 704.698C1147.9 703.398 1162 705.798 1193.7 715.298C1195.4 715.798 1189.9 721.598 1186.9 725.898Z" fill="#F49047"/>
<path fill-rule="evenodd" clip-rule="evenodd" d="M1198.6 728.998C1196.7 730.198 1203.9 732.398 1202.7 733.898C1202.6 733.998 1197 734.398 1192.6 734.698V735.998L1184.8 736.298C1177.8 737.998 1163.2 725.098 1159.6 724.698C1150 723.798 1146.1 723.798 1132.8 738.198C1127.3 744.198 1122.9 742.398 1122.9 742.398C1127.5 735.098 1130.1 728.498 1138.9 713.798C1143.9 705.498 1147.9 701.098 1184.3 710.298L1186.3 710.198L1193.6 710.598L1193.5 712.798C1196 713.498 1198.7 714.198 1201.5 714.998C1204.2 715.898 1197.4 726.598 1198.6 728.998Z" fill="#FAAD74"/>
<path fill-rule="evenodd" clip-rule="evenodd" d="M1123 712.399C1125.7 707.699 1128.3 704.399 1135 703.499C1137.1 703.199 1139.5 703.199 1142.5 703.399C1142.6 703.399 1142.7 703.399 1142.8 703.399L1153.1 705.099C1145.1 705.499 1143.1 708.899 1140.6 713.099C1136 720.899 1133.1 726.499 1130.7 730.999C1128.6 735.099 1126.9 738.399 1124.7 741.799C1124.5 742.099 1124.2 742.299 1123.9 742.299C1123.7 742.299 1123.5 742.299 1123.3 742.099C1122.8 741.799 1122.7 741.199 1123 740.699C1125.1 737.299 1126.8 734.099 1128.9 729.999C1131.3 725.499 1134.2 719.799 1138.9 711.999C1140.8 708.799 1142.5 706.299 1145.6 704.699C1137.3 705.299 1135.1 708.899 1132.6 713.199C1128 720.999 1125.1 726.599 1122.7 731.099C1120.6 735.199 1118.9 738.499 1116.7 741.899C1116.5 742.199 1116.2 742.399 1115.9 742.399C1115.7 742.399 1115.5 742.399 1115.3 742.199C1114.8 741.899 1114.7 741.299 1115 740.799C1117.1 737.399 1118.8 734.199 1120.9 730.099C1123.3 725.599 1126.2 719.899 1130.9 712.099C1132.6 709.199 1134.3 706.799 1136.9 705.199C1136.2 705.299 1135.6 705.399 1135 705.499C1128.7 706.399 1126.9 709.499 1124.6 713.299C1120 721.099 1117.1 726.699 1114.7 731.199C1112.6 735.299 1110.9 738.599 1108.7 741.999C1108.5 742.299 1108.2 742.499 1107.9 742.499C1107.7 742.499 1107.5 742.499 1107.3 742.299C1106.8 741.999 1106.7 741.399 1107 740.899C1109.1 737.499 1110.8 734.299 1112.9 730.199C1115.4 725.899 1118.4 720.299 1123 712.399Z" fill="black"/>
<path fill-rule="evenodd" clip-rule="evenodd" d="M1200.8 735.998L1184.8 736.298C1185 736.298 1185 736.298 1185.2 736.298C1189.3 736.198 1192.7 730.098 1192.6 722.898C1192.5 716.598 1189.8 711.498 1186.4 710.298L1199.8 709.998H1200.3C1204.2 710.398 1207.4 715.898 1207.5 722.798C1207.7 729.798 1204.7 735.498 1200.8 735.998Z" fill="#5765AC"/>
<path fill-rule="evenodd" clip-rule="evenodd" d="M1200 500C1200 500 1158.1 524.8 1157.6 546C1174.3 560.3 1199 565 1199 565L1200 500Z" fill="#F78F1E"/>
<path fill-rule="evenodd" clip-rule="evenodd" d="M1185 521C1200.2 521 1212.5 533.3 1212.5 548.5C1212.5 563.7 1200.2 576 1185 576C1169.8 576 1157.5 563.7 1157.5 548.5C1157.5 533.3 1169.8 521 1185 521Z" fill="#F78F1E"/>
<path fill-rule="evenodd" clip-rule="evenodd" d="M1235 525.498L1234.6 570.098C1235.7 574.598 1228 579.698 1216.7 582.698C1205.4 585.698 1194.8 583.598 1193.6 579.098V544.098C1186.8 542.398 1182.8 538.398 1182.8 528.398C1182.8 504.198 1182.6 490.098 1182.6 490.098C1187.3 477.698 1227.3 450.198 1236 491.098C1237.1 496.198 1247.2 495.798 1247 500.098C1246.5 510.198 1241.6 518.698 1235 525.498Z" fill="#FAAD74"/>
<path fill-rule="evenodd" clip-rule="evenodd" d="M1225.2 533.6C1218.8 544 1206.8 555.8 1193.6 559.7V544.3C1195.1 544.4 1196.8 544.5 1197.3 544.6C1201.4 545.1 1213.8 541.4 1225.2 533.6Z" fill="black"/>
<path d="M1197.3 525.2C1197 525.2 1196.7 525.2 1196.4 525.2C1195.9 525.1 1195.5 524.7 1195.5 524.1C1195.6 523.6 1196 523.2 1196.6 523.2C1200.8 523.6 1203.6 519.7 1203.6 519.6C1203.9 519.1 1204.5 519 1205 519.3C1205.5 519.6 1205.6 520.2 1205.3 520.7C1205.2 520.9 1202.2 525.2 1197.3 525.2Z" fill="black"/>
<path d="M1208.5 497.3H1208.4L1201.4 496.3C1200.9 496.2 1200.5 495.7 1200.6 495.2C1200.7 494.7 1201.2 494.3 1201.7 494.4L1208.6 495.4C1209.1 495.5 1209.5 496 1209.4 496.5C1209.4 496.9 1208.9 497.3 1208.5 497.3Z" fill="black"/>
<path d="M1184.6 497.299C1184.2 497.299 1183.8 497.099 1183.7 496.699C1183.5 496.199 1183.7 495.599 1184.3 495.399L1189.3 493.399C1189.8 493.199 1190.4 493.399 1190.6 493.999C1190.8 494.499 1190.6 495.099 1190 495.299L1185 497.299C1184.9 497.299 1184.7 497.299 1184.6 497.299Z" fill="black"/>
<path d="M1197.5 516.199C1197.4 516.199 1197.3 516.199 1197.2 516.099C1195.4 515.499 1194.2 514.399 1193.6 512.799C1192.1 508.999 1194.6 503.899 1194.7 503.699C1194.9 503.199 1195.5 502.999 1196 503.299C1196.5 503.499 1196.7 504.099 1196.4 504.599C1196.4 504.599 1194.2 509.099 1195.4 511.999C1195.8 512.999 1196.6 513.699 1197.8 514.099C1198.3 514.299 1198.6 514.799 1198.4 515.399C1198.3 515.899 1197.9 516.199 1197.5 516.199Z" fill="black"/>
<path fill-rule="evenodd" clip-rule="evenodd" d="M1206.5 503C1207.9 503 1209 504.1 1209 505.5C1209 506.9 1207.9 508 1206.5 508C1205.1 508 1204 506.9 1204 505.5C1204 504.1 1205.1 503 1206.5 503Z" fill="black"/>
<path fill-rule="evenodd" clip-rule="evenodd" d="M1187.5 503C1188.9 503 1190 504.1 1190 505.5C1190 506.9 1188.9 508 1187.5 508C1186.1 508 1185 506.9 1185 505.5C1185 504.1 1186.1 503 1187.5 503Z" fill="black"/>
<path fill-rule="evenodd" clip-rule="evenodd" d="M1283.4 509.199C1299.5 509.999 1306.5 518.899 1306.8 519.299C1307.1 519.699 1307.1 520.399 1306.6 520.699C1306.5 520.799 1306.3 520.899 1306.1 520.899C1305.8 520.999 1305.4 520.799 1305.2 520.499C1305.1 520.399 1298.5 511.999 1283.3 511.199C1274.7 510.799 1269.2 509.699 1265.9 507.699C1270.9 515.199 1282.4 518.999 1287.7 520.399C1288.7 520.599 1289.6 520.799 1290.6 521.099C1299.3 523.899 1305.6 531.999 1305.6 541.599C1305.6 547.399 1303.3 552.699 1299.5 556.599C1303.9 561.899 1306.6 568.799 1306.6 576.299C1306.6 593.399 1292.8 607.199 1275.7 607.199C1264.6 607.199 1254.8 601.299 1249.4 592.499C1219 567.099 1233.9 514.699 1235.5 509.599C1229.1 501.399 1210 498.299 1192.6 483.199C1185.7 489.099 1183.8 492.799 1182.6 498.199C1182.6 498.199 1161.6 471.899 1191.6 473.199C1202.8 464.499 1210.5 459.799 1232 454.199C1235.1 453.399 1238.5 453.499 1242 454.199C1240.5 451.199 1239.6 447.799 1239.6 444.199C1239.6 431.999 1249.4 422.199 1261.6 422.199C1273.8 422.199 1283.6 431.999 1283.6 444.199C1283.6 456.399 1273.8 466.199 1261.6 466.199C1261.4 466.199 1261.2 466.199 1261 466.199C1266.7 473.299 1269.4 482.899 1265 493.199C1264.3 494.899 1263.8 496.599 1263.6 498.099C1263.4 500.899 1263.6 502.999 1265 504.599C1267.4 507.199 1273.2 508.699 1283.4 509.199Z" fill="#F78F1E"/>
<path fill-rule="evenodd" clip-rule="evenodd" d="M898.6 743H885.6C878.5 743 872.7 737.8 871.8 731L864.1 727C861.6 725.7 860.1 723.2 860.1 720.4V708.8C860.1 704.7 863.4 701.3 867.6 701.3H871.6V696H912.6V729C912.6 736.8 906.3 743 898.6 743ZM867.6 703.3C864.6 703.3 862.1 705.7 862.1 708.8V720.4C862.1 722.4 863.2 724.3 865 725.2L871.6 728.6V703.2H867.6V703.3Z" fill="white"/>
<path fill-rule="evenodd" clip-rule="evenodd" d="M1476.2 1209L1413.7 764H1433.7L1488.7 1209H1476.2ZM798.1 1209L854.1 764H874.1L811.6 1209H798.1Z" fill="black"/>
<path fill-rule="evenodd" clip-rule="evenodd" d="M792.6 743H1496.6V764H792.6V743V743Z" fill="#CA4540"/>
<path fill-rule="evenodd" clip-rule="evenodd" d="M915.6 637H1069.6L1096.6 743H942.6L915.6 637Z" fill="black"/>
<path fill-rule="evenodd" clip-rule="evenodd" d="M1092.6 736H1199.6V743H1092.6V736Z" fill="black"/>
<path fill-rule="evenodd" clip-rule="evenodd" d="M1022.1 665.499L1004 690.899L972.9 665.499H982.8L969.6 620.199H998.9L1012.1 665.499H1022.1Z" fill="#5765AC"/>
<path fill-rule="evenodd" clip-rule="evenodd" d="M864.3 625C867.2 610 880.3 598.7 896.1 598.7C897.6 598.7 899 598.8 900.5 599C900.4 597 900.3 595.1 900.3 593.1C900.3 550.6 934.8 516.1 977.3 516.1C1018.2 516.1 1051.6 547.9 1054.2 588.2C1056.4 588 1058.7 587.8 1060.9 587.8C1086.2 587.8 1107.9 603.1 1117.3 625H864.3V625Z" fill="white"/>
<path fill-rule="evenodd" clip-rule="evenodd" d="M1341.2 659.299L1347 660.499L1327.2 738.999L1321.4 737.799L1341.2 659.299Z" fill="#F78F1E"/>
<path fill-rule="evenodd" clip-rule="evenodd" d="M1335.1 659.299L1340.9 660.499L1321.1 738.999L1315.3 737.799L1335.1 659.299Z" fill="#5765AC"/>
<path fill-rule="evenodd" clip-rule="evenodd" d="M1347.3 659.299L1353.1 660.499L1333.3 738.999L1327.5 737.799L1347.3 659.299Z" fill="#CA4540"/>
<path fill-rule="evenodd" clip-rule="evenodd" d="M1369.5 647.899C1370 648.199 1370.1 648.799 1369.9 649.299L1316.2 740.699C1315.9 741.199 1315.3 741.299 1314.8 741.099C1314.3 740.799 1314.2 740.199 1314.4 739.699L1368.1 648.299C1368.4 647.799 1369.1 647.699 1369.5 647.899Z" fill="black"/>
<path fill-rule="evenodd" clip-rule="evenodd" d="M1299.6 689H1346.6V743H1299.6V689Z" fill="#303E7E"/>
<path fill-rule="evenodd" clip-rule="evenodd" d="M1431.6 730.5C1431.6 736.7 1426.7 741.7 1420.6 742H1331.6V741.5C1336.2 740 1339.6 735.7 1339.6 730.5C1339.6 725.4 1336.2 721 1331.6 719.5V719H1420.6C1426.7 719.3 1431.6 724.3 1431.6 730.5Z" fill="white"/>
<path fill-rule="evenodd" clip-rule="evenodd" d="M1420.1 743H1331.6V741H1333.6H1334.6H1420.1C1425.9 741 1430.6 736.3 1430.6 730.5C1430.6 724.7 1425.9 720 1420.1 720H1334.6H1333.6H1331.6V718H1420.1C1427 718 1432.6 723.6 1432.6 730.5C1432.6 737.4 1427 743 1420.1 743Z" fill="black"/>
<path fill-rule="evenodd" clip-rule="evenodd" d="M1653.6 1219H1539.6C1539.6 1219 1456.4 1214.9 1447.6 1185C1438.5 1154.3 1482.6 1125 1482.6 1125L1605.3 1201.8C1610.6 1202.7 1616.1 1203.2 1621.6 1203C1657.6 1202 1653.6 1219 1653.6 1219Z" fill="#B5302A"/>
<path fill-rule="evenodd" clip-rule="evenodd" d="M1527.4 1217.2C1526.6 1217.4 1525.8 1217.6 1524.9 1217.7C1517.7 1216.9 1508.6 1215.6 1499.2 1213.7C1491.4 1209.4 1485 1201.8 1482.3 1190.3C1476.6 1166 1486 1143 1503.3 1138.9C1503.6 1138.8 1504 1138.8 1504.3 1138.7L1539.6 1160.8C1542 1165.2 1543.8 1170.2 1545.1 1175.5C1550.9 1199.7 1544.8 1213.1 1527.4 1217.2Z" fill="black"/>
<path fill-rule="evenodd" clip-rule="evenodd" d="M1495.6 1066C1495.6 1066 1499 984 1437.6 984C1361.8 984 1353.6 1109 1353.6 1109C1353.6 1109 1315.5 1138.3 1294.6 1129C1256.3 1112 1201.9 1128 1200.6 1172C1199.8 1199.7 1223.6 1210 1223.6 1210H1420.6C1420.6 1210 1441.7 1214 1470.6 1214C1496.9 1214 1498.1 1214.2 1507.6 1205C1581.5 1133.5 1481.3 1084.7 1484.6 1069C1487.9 1053.4 1495.6 1066 1495.6 1066Z" fill="#CA4540"/>
<path fill-rule="evenodd" clip-rule="evenodd" d="M1471.6 1219H1562.6H1599.6C1599.6 1219 1603.6 1202 1567.6 1203C1525.1 1204.2 1470.6 1159 1429.6 1161C1403.1 1162.3 1377.6 1218.5 1471.6 1219Z" fill="#CA4540"/>
<path fill-rule="evenodd" clip-rule="evenodd" d="M1299.3 1102.3C1293.9 1093.8 1285.5 1087 1275.1 1083.8C1251.8 1076.7 1227.2 1089.8 1220.1 1113C1215.2 1129 1219.9 1145.7 1230.9 1156.8C1231.8 1157.4 1232.6 1158 1233.5 1158.6C1233.4 1158.6 1233.4 1158.6 1233.3 1158.6C1233.4 1158.7 1233.6 1158.7 1233.7 1158.8C1233.6 1158.7 1233.5 1158.7 1233.5 1158.6C1240 1158.6 1246.6 1157.6 1253.1 1155.5C1262.4 1152.6 1266.6 1167.6 1271.3 1171.7C1263 1172.2 1253 1169.3 1243.4 1164.4C1243.5 1164.8 1243.5 1165.2 1243.4 1165.6C1239.5 1163.7 1235.9 1161.4 1232.8 1158.5C1204.7 1158.4 1178.7 1140.2 1169.8 1112C1158.8 1077 1178.3 1039.7 1213.3 1028.7C1242.4 1019.6 1273 1031.4 1288.9 1055.8C1286.5 1054.8 1283.9 1054 1281.3 1053.4C1293 1066.7 1299.7 1084.1 1299.3 1102.3ZM1271.1 1171.8C1273 1171.7 1274.8 1171.4 1276.5 1170.9C1274.5 1173.4 1272.8 1173.2 1271.1 1171.8ZM1243.2 1165.7C1244.8 1166.4 1246.4 1167.1 1248.1 1167.7C1241 1169.7 1242.9 1168.2 1243.2 1165.7Z" fill="#CA4540"/>
<path fill-rule="evenodd" clip-rule="evenodd" d="M1465.6 1009C1465.6 1009 1437.1 980.901 1399.6 1059C1389.8 1079.3 1377.3 1128 1435.4 1154.4C1455.4 1163.4 1508.9 1187.1 1524.6 1192C1553.1 1201 1494.6 1213 1494.6 1213C1494.6 1213 1540.6 1200.7 1540.6 1139C1540.6 1103.4 1497.6 1080.8 1497.6 1061C1497.6 1041.4 1485.4 993.101 1465.6 1009Z" fill="#F78F1E"/>
<path fill-rule="evenodd" clip-rule="evenodd" d="M1622.6 1219H1468.6C1468.6 1219 1400 1220.7 1392.6 1184C1386.2 1152.6 1428.6 1151 1428.6 1151L1574.3 1201.8C1579.6 1202.7 1585.1 1203.2 1590.6 1203C1626.6 1202 1622.6 1219 1622.6 1219Z" fill="#CA4540"/>
<path fill-rule="evenodd" clip-rule="evenodd" d="M1509.6 1045C1524.4 1046.8 1531.4 1053.9 1530.6 1061C1529.1 1074.4 1518.9 1075 1505.6 1075C1492.3 1075 1484.6 1068.2 1484.6 1061C1484.6 1055.4 1472.8 1029.8 1480.6 1035C1492.2 1042.7 1502.5 1044.2 1509.6 1045Z" fill="#F78F1E"/>
<path fill-rule="evenodd" clip-rule="evenodd" d="M1432.6 1039C1432.6 1039 1449.6 1037.5 1469.6 1057C1489.6 1076.5 1481.6 1068 1481.6 1068C1481.6 1068 1497.1 1098 1483.6 1098C1462.7 1098 1454.2 1048.1 1432.6 1039Z" fill="#CA4540"/>
<path fill-rule="evenodd" clip-rule="evenodd" d="M1483.6 1098C1482.9 1098.2 1482.2 1097.9 1481.5 1097.8C1480.4 1070.2 1459.6 1050 1459.6 1050C1459.6 1050 1460.1 1049.8 1460.9 1049.6C1465.1 1053.9 1469.5 1056.6 1478.6 1065C1485.5 1071.3 1495.2 1095 1483.6 1098Z" fill="black"/>
<path fill-rule="evenodd" clip-rule="evenodd" d="M1389.6 1189L1416.7 1210H1391.6C1385.3 1205.7 1389.6 1189 1389.6 1189Z" fill="black"/>
<path fill-rule="evenodd" clip-rule="evenodd" d="M1369.8 1174.1C1370.1 1173.7 1370.8 1173.6 1371.2 1173.9L1411.2 1205.6C1411.6 1205.9 1411.7 1206.6 1411.4 1207C1411.1 1207.4 1410.4 1207.5 1410 1207.2L1370 1175.5C1369.6 1175.1 1369.5 1174.5 1369.8 1174.1Z" fill="black"/>
<path fill-rule="evenodd" clip-rule="evenodd" d="M1275 1083.8C1261.9 1079.8 1248.4 1082.2 1237.8 1089.2C1226.9 1074.1 1227.7 1051.8 1236.6 1042.9C1239.8 1042.1 1248.8 1037.2 1254.7 1041C1251.6 1034.9 1243.8 1032.5 1240.6 1032.3C1242.4 1030.5 1244.4 1028.8 1246.5 1027.3C1263.6 1030.9 1278.9 1041.1 1288.6 1056.1C1286.2 1055.1 1283.6 1054.3 1281 1053.7C1293 1066.8 1299.7 1084.2 1299.3 1102.4C1293.8 1093.7 1285.5 1087 1275 1083.8Z" fill="#F78F1E"/>
<path fill-rule="evenodd" clip-rule="evenodd" d="M1413.7 1004.5C1407.4 1005.5 1401.1 1004.5 1396.8 998.8C1382 979.4 1396.2 951 1414.4 938.1C1424.1 931.2 1431.7 935.3 1432.3 951.7C1432.7 964.8 1434.4 979.8 1435.4 988.1C1426.3 991.1 1418.7 996.9 1413.7 1004.5Z" fill="#CA4540"/>
<path fill-rule="evenodd" clip-rule="evenodd" d="M1473.4 998.8C1467.3 992.5 1457.8 987 1445.2 986.1C1446 977.6 1447 963.8 1447.3 951.6C1447.7 935.2 1453.3 931.1 1460.5 938C1473.9 951 1484.3 979.4 1473.4 998.8Z" fill="#CA4540"/>
<path fill-rule="evenodd" clip-rule="evenodd" d="M1421 996.2C1420.6 990.4 1421 982.1 1424.3 973.1C1431.4 953.9 1428.7 940.5 1427.8 937.1C1430.3 939.7 1432 944.5 1432.2 951.7C1432.6 964.8 1434.3 979.8 1435.3 988.1C1430 989.9 1425.1 992.6 1421 996.2ZM1453.2 973.1C1454.7 978.5 1455.4 983.6 1455.6 988.1C1452.4 987.1 1449 986.5 1445.2 986.2C1446 977.7 1447 963.9 1447.3 951.7C1447.5 944.5 1448.7 939.7 1450.5 937.1C1449.9 940.5 1447.9 953.9 1453.2 973.1Z" fill="#F78F1E"/>
<path d="M1520.5 1073.7H1520.4C1519.9 1073.6 1519.5 1073.1 1519.5 1072.6L1520.4 1064.3C1520.5 1063.8 1521 1063.4 1521.5 1063.4C1522 1063.5 1522.4 1064 1522.4 1064.5L1521.5 1072.8C1521.5 1073.3 1521 1073.7 1520.5 1073.7Z" fill="black"/>
<path d="M1506.2 1075.3C1495.4 1075.3 1482.1 1072.4 1471.9 1061.1C1452.1 1039.1 1425 1038.5 1424.7 1038.5C1424.1 1038.5 1423.7 1038 1423.7 1037.5C1423.7 1037 1424.2 1036.5 1424.7 1036.5C1425 1036.5 1452.9 1037 1473.3 1059.7C1492.9 1081.6 1524.8 1070.5 1525.1 1070.4C1525.6 1070.2 1526.2 1070.5 1526.4 1071C1526.6 1071.5 1526.3 1072.1 1525.8 1072.3C1525.6 1072.3 1517.2 1075.3 1506.2 1075.3Z" fill="black"/>
<path d="M1465.7 992.7C1465.3 992.7 1464.9 992.7 1464.5 992.6C1464 992.5 1463.6 992 1463.7 991.5C1463.8 991 1464.3 990.6 1464.8 990.7C1469.1 991.4 1471.8 987.3 1471.9 987.1C1472.2 986.6 1472.8 986.5 1473.3 986.8C1473.8 987.1 1473.9 987.7 1473.6 988.2C1473.4 988.3 1470.5 992.7 1465.7 992.7Z" fill="black"/>
<path d="M1464.6 992.599C1464.4 992.599 1464.2 992.499 1464 992.399C1463.5 992.099 1463.4 991.499 1463.7 990.999C1468.7 983.699 1463.7 973.199 1463.6 973.099C1463.4 972.599 1463.6 971.999 1464.1 971.799C1464.6 971.599 1465.2 971.799 1465.4 972.299C1465.6 972.799 1471 983.999 1465.3 992.199C1465.2 992.499 1464.9 992.599 1464.6 992.599Z" fill="black"/>
<path d="M1413 1001C1405.8 1001 1402.1 996.5 1401.9 996.2C1401.6 995.8 1401.6 995.1 1402.1 994.8C1402.5 994.5 1403.2 994.5 1403.5 995C1403.7 995.2 1408 1000.4 1416.5 998.6C1417 998.5 1417.6 998.8 1417.7 999.4C1417.8 999.9 1417.5 1000.5 1416.9 1000.6C1415.5 1000.9 1414.2 1001 1413 1001Z" fill="black"/>
<path d="M1416.7 1000.6C1416.5 1000.6 1416.4 1000.6 1416.2 1000.5C1402.9 993.399 1401.7 980.299 1401.7 979.799C1401.7 979.299 1402.1 978.799 1402.6 978.699C1403.2 978.699 1403.6 979.099 1403.7 979.599C1403.7 979.699 1404.8 992.099 1417.1 998.699C1417.6 998.999 1417.8 999.599 1417.5 999.999C1417.4 1000.4 1417 1000.6 1416.7 1000.6Z" fill="black"/>
<path fill-rule="evenodd" clip-rule="evenodd" d="M1520.8 1051C1526.2 1051 1530.6 1054.2 1530.6 1058.2C1530.6 1062.2 1526.2 1065.4 1520.8 1065.4C1515.4 1065.4 1511 1062.2 1511 1058.2C1511.1 1054.2 1515.4 1051 1520.8 1051Z" fill="black"/>
<path fill-rule="evenodd" clip-rule="evenodd" d="M1455.1 1027C1457 1027 1458.6 1028.6 1458.6 1030.5C1458.6 1032.4 1457 1034 1455.1 1034C1453.2 1034 1451.6 1032.4 1451.6 1030.5C1451.6 1028.6 1453.2 1027 1455.1 1027Z" fill="black"/>
<path fill-rule="evenodd" clip-rule="evenodd" d="M1479.1 1027C1481 1027 1482.6 1028.6 1482.6 1030.5C1482.6 1032.4 1481 1034 1479.1 1034C1477.2 1034 1475.6 1032.4 1475.6 1030.5C1475.6 1028.6 1477.2 1027 1479.1 1027Z" fill="black"/>
</svg>
